<?xml version="1.0" encoding="UTF-8" standalone="no"?>
<!DOCTYPE svg PUBLIC "-//W3C//DTD SVG 1.1//EN"
 "http://www.w3.org/Graphics/SVG/1.1/DTD/svg11.dtd">
<!-- Generated by graphviz version 2.44.1 (20200629.0800)
 -->
<!-- Title: G Pages: 1 -->
<svg width="124pt" height="360pt"
 viewBox="0.00 0.00 124.18 360.00" xmlns="http://www.w3.org/2000/svg" xmlns:xlink="http://www.w3.org/1999/xlink">
<g id="graph0" class="graph" transform="scale(0.05 0.05) rotate(0) translate(4 7870)">
<title>G</title>
<polygon fill="white" stroke="transparent" points="-4,4 -4,-7870 2712,-7870 2712,4 -4,4"/>
<!-- n136 -->
<g id="node1" class="node">
<title>n136</title>
<path fill="none" stroke="green" stroke-width="2" d="M376.5,-792C376.5,-792 284.5,-792 284.5,-792 278.5,-792 272.5,-786 272.5,-780 272.5,-780 272.5,-768 272.5,-768 272.5,-762 278.5,-756 284.5,-756 284.5,-756 376.5,-756 376.5,-756 382.5,-756 388.5,-762 388.5,-768 388.5,-768 388.5,-780 388.5,-780 388.5,-786 382.5,-792 376.5,-792"/>
<text text-anchor="middle" x="330.5" y="-770.3" font-family="Arial" font-size="14.00">../../../../../.config</text>
</g>
<!-- n130 -->
<g id="node2" class="node">
<title>n130</title>
<path fill="none" stroke="green" stroke-width="2" d="M379.5,-846C379.5,-846 281.5,-846 281.5,-846 275.5,-846 269.5,-840 269.5,-834 269.5,-834 269.5,-822 269.5,-822 269.5,-816 275.5,-810 281.5,-810 281.5,-810 379.5,-810 379.5,-810 385.5,-810 391.5,-816 391.5,-822 391.5,-822 391.5,-834 391.5,-834 391.5,-840 385.5,-846 379.5,-846"/>
<text text-anchor="middle" x="330.5" y="-824.3" font-family="Arial" font-size="14.00">../../../../../.rule.mk</text>
</g>
<!-- n132 -->
<g id="node3" class="node">
<title>n132</title>
<path fill="none" stroke="green" stroke-width="2" d="M473.5,-900C473.5,-900 187.5,-900 187.5,-900 181.5,-900 175.5,-894 175.5,-888 175.5,-888 175.5,-876 175.5,-876 175.5,-870 181.5,-864 187.5,-864 187.5,-864 473.5,-864 473.5,-864 479.5,-864 485.5,-870 485.5,-876 485.5,-876 485.5,-888 485.5,-888 485.5,-894 479.5,-900 473.5,-900"/>
<text text-anchor="middle" x="330.5" y="-878.3" font-family="Arial" font-size="14.00">../../../../../config/board/linkit7697_hdk/board.mk</text>
</g>
<!-- n135 -->
<g id="node4" class="node">
<title>n135</title>
<path fill="none" stroke="green" stroke-width="2" d="M442,-954C442,-954 219,-954 219,-954 213,-954 207,-948 207,-942 207,-942 207,-930 207,-930 207,-924 213,-918 219,-918 219,-918 442,-918 442,-918 448,-918 454,-924 454,-930 454,-930 454,-942 454,-942 454,-948 448,-954 442,-954"/>
<text text-anchor="middle" x="330.5" y="-932.3" font-family="Arial" font-size="14.00">../../../../../config/chip/mt7697/chip.mk</text>
</g>
<!-- n148 -->
<g id="node5" class="node">
<title>n148</title>
<path fill="none" stroke="green" stroke-width="2" d="M556.5,-1008C556.5,-1008 104.5,-1008 104.5,-1008 98.5,-1008 92.5,-1002 92.5,-996 92.5,-996 92.5,-984 92.5,-984 92.5,-978 98.5,-972 104.5,-972 104.5,-972 556.5,-972 556.5,-972 562.5,-972 568.5,-978 568.5,-984 568.5,-984 568.5,-996 568.5,-996 568.5,-1002 562.5,-1008 556.5,-1008"/>
<text text-anchor="middle" x="330.5" y="-986.3" font-family="Arial" font-size="14.00">../../../../../driver/CMSIS/Device/MTK/mt7687/Include/exception_mt7687.h</text>
</g>
<!-- n147 -->
<g id="node6" class="node">
<title>n147</title>
<path fill="none" stroke="green" stroke-width="2" d="M552,-1062C552,-1062 109,-1062 109,-1062 103,-1062 97,-1056 97,-1050 97,-1050 97,-1038 97,-1038 97,-1032 103,-1026 109,-1026 109,-1026 552,-1026 552,-1026 558,-1026 564,-1032 564,-1038 564,-1038 564,-1050 564,-1050 564,-1056 558,-1062 552,-1062"/>
<text text-anchor="middle" x="330.5" y="-1040.3" font-family="Arial" font-size="14.00">../../../../../driver/CMSIS/Device/MTK/mt7687/Include/memory_attribute.h</text>
</g>
<!-- n139 -->
<g id="node7" class="node">
<title>n139</title>
<path fill="none" stroke="green" stroke-width="2" d="M1155.5,-1062C1155.5,-1062 773.5,-1062 773.5,-1062 767.5,-1062 761.5,-1056 761.5,-1050 761.5,-1050 761.5,-1038 761.5,-1038 761.5,-1032 767.5,-1026 773.5,-1026 773.5,-1026 1155.5,-1026 1155.5,-1026 1161.5,-1026 1167.5,-1032 1167.5,-1038 1167.5,-1038 1167.5,-1050 1167.5,-1050 1167.5,-1056 1161.5,-1062 1155.5,-1062"/>
<text text-anchor="middle" x="964.5" y="-1040.3" font-family="Arial" font-size="14.00">../../../../../driver/CMSIS/Device/MTK/mt7687/Include/mt7687.h</text>
</g>
<!-- n276 -->
<g id="node152" class="node">
<title>n276</title>
<path fill="none" stroke="red" stroke-width="2" d="M1969,-576C1969,-576 1280,-576 1280,-576 1274,-576 1268,-570 1268,-564 1268,-564 1268,-552 1268,-552 1268,-546 1274,-540 1280,-540 1280,-540 1969,-540 1969,-540 1975,-540 1981,-546 1981,-552 1981,-552 1981,-564 1981,-564 1981,-570 1975,-576 1969,-576"/>
<text text-anchor="middle" x="1624.5" y="-554.3" font-family="Arial" font-size="14.00">uart_loopback_data_dma/GCC/build/project/linkit7697_hdk/hal_examples/uart_loopback_data_dma/src/main.o</text>
</g>
<!-- n139&#45;&gt;n276 -->
<g id="edge3" class="edge">
<title>n139&#45;&gt;n276</title>
<path fill="none" stroke="black" d="M1167.51,-1051.6C1191.34,-1044.77 1213.66,-1033.81 1232,-1017 1295.04,-959.23 1222.96,-900.69 1268,-828 1343.61,-705.98 1495.91,-619.19 1574.34,-580.52"/>
<polygon fill="black" stroke="black" points="1576.07,-583.57 1583.53,-576.05 1573.01,-577.28 1576.07,-583.57"/>
</g>
<!-- n145 -->
<g id="node8" class="node">
<title>n145</title>
<path fill="none" stroke="green" stroke-width="2" d="M586.5,-1170C586.5,-1170 74.5,-1170 74.5,-1170 68.5,-1170 62.5,-1164 62.5,-1158 62.5,-1158 62.5,-1146 62.5,-1146 62.5,-1140 68.5,-1134 74.5,-1134 74.5,-1134 586.5,-1134 586.5,-1134 592.5,-1134 598.5,-1140 598.5,-1146 598.5,-1146 598.5,-1158 598.5,-1158 598.5,-1164 592.5,-1170 586.5,-1170"/>
<text text-anchor="middle" x="330.5" y="-1148.3" font-family="Arial" font-size="14.00">../../../../../driver/CMSIS/Device/MTK/mt7687/Include/mt7687_cm4_hw_memmap.h</text>
</g>
<!-- n144 -->
<g id="node9" class="node">
<title>n144</title>
<path fill="none" stroke="green" stroke-width="2" d="M1182.5,-1008C1182.5,-1008 746.5,-1008 746.5,-1008 740.5,-1008 734.5,-1002 734.5,-996 734.5,-996 734.5,-984 734.5,-984 734.5,-978 740.5,-972 746.5,-972 746.5,-972 1182.5,-972 1182.5,-972 1188.5,-972 1194.5,-978 1194.5,-984 1194.5,-984 1194.5,-996 1194.5,-996 1194.5,-1002 1188.5,-1008 1182.5,-1008"/>
<text text-anchor="middle" x="964.5" y="-986.3" font-family="Arial" font-size="14.00">../../../../../driver/CMSIS/Device/MTK/mt7687/Include/system_mt7687.h</text>
</g>
<!-- n144&#45;&gt;n276 -->
<g id="edge4" class="edge">
<title>n144&#45;&gt;n276</title>
<path fill="none" stroke="black" d="M1194.53,-986.33C1208.01,-980.31 1220.67,-972.65 1232,-963 1279.27,-922.73 1233.4,-879.57 1268,-828 1348.39,-708.18 1499.88,-619.83 1576.53,-580.56"/>
<polygon fill="black" stroke="black" points="1578.16,-583.65 1585.5,-576.01 1575,-577.41 1578.16,-583.65"/>
</g>
<!-- n140 -->
<g id="node10" class="node">
<title>n140</title>
<path fill="none" stroke="green" stroke-width="2" d="M1096,-954C1096,-954 833,-954 833,-954 827,-954 821,-948 821,-942 821,-942 821,-930 821,-930 821,-924 827,-918 833,-918 833,-918 1096,-918 1096,-918 1102,-918 1108,-924 1108,-930 1108,-930 1108,-942 1108,-942 1108,-948 1102,-954 1096,-954"/>
<text text-anchor="middle" x="964.5" y="-932.3" font-family="Arial" font-size="14.00">../../../../../driver/CMSIS/Include/core_cm4.h</text>
</g>
<!-- n140&#45;&gt;n276 -->
<g id="edge5" class="edge">
<title>n140&#45;&gt;n276</title>
<path fill="none" stroke="black" d="M1108.06,-948.05C1151.26,-945.09 1196.59,-934.64 1232,-909 1263.91,-885.89 1243.54,-858.89 1268,-828 1358.31,-713.94 1507.33,-621.98 1580.4,-581.03"/>
<polygon fill="black" stroke="black" points="1582.3,-583.98 1589.34,-576.06 1578.9,-577.86 1582.3,-583.98"/>
</g>
<!-- n142 -->
<g id="node11" class="node">
<title>n142</title>
<path fill="none" stroke="green" stroke-width="2" d="M1108,-900C1108,-900 821,-900 821,-900 815,-900 809,-894 809,-888 809,-888 809,-876 809,-876 809,-870 815,-864 821,-864 821,-864 1108,-864 1108,-864 1114,-864 1120,-870 1120,-876 1120,-876 1120,-888 1120,-888 1120,-894 1114,-900 1108,-900"/>
<text text-anchor="middle" x="964.5" y="-878.3" font-family="Arial" font-size="14.00">../../../../../driver/CMSIS/Include/core_cmFunc.h</text>
</g>
<!-- n142&#45;&gt;n276 -->
<g id="edge6" class="edge">
<title>n142&#45;&gt;n276</title>
<path fill="none" stroke="black" d="M1120.05,-880.7C1157.64,-876.52 1197.06,-868.75 1232,-855 1233.31,-854.49 1498.21,-653.22 1591.47,-582.34"/>
<polygon fill="black" stroke="black" points="1593.85,-584.93 1599.69,-576.1 1589.61,-579.36 1593.85,-584.93"/>
</g>
<!-- n141 -->
<g id="node12" class="node">
<title>n141</title>
<path fill="none" stroke="green" stroke-width="2" d="M1106,-846C1106,-846 823,-846 823,-846 817,-846 811,-840 811,-834 811,-834 811,-822 811,-822 811,-816 817,-810 823,-810 823,-810 1106,-810 1106,-810 1112,-810 1118,-816 1118,-822 1118,-822 1118,-834 1118,-834 1118,-840 1112,-846 1106,-846"/>
<text text-anchor="middle" x="964.5" y="-824.3" font-family="Arial" font-size="14.00">../../../../../driver/CMSIS/Include/core_cmInstr.h</text>
</g>
<!-- n141&#45;&gt;n276 -->
<g id="edge7" class="edge">
<title>n141&#45;&gt;n276</title>
<path fill="none" stroke="black" d="M1118.16,-824.5C1156.08,-820.39 1196.12,-813.22 1232,-801 1381.29,-750.16 1532.83,-633.51 1594.61,-582.56"/>
<polygon fill="black" stroke="black" points="1596.93,-585.19 1602.38,-576.11 1592.45,-579.8 1596.93,-585.19"/>
</g>
<!-- n143 -->
<g id="node13" class="node">
<title>n143</title>
<path fill="none" stroke="green" stroke-width="2" d="M1108.5,-792C1108.5,-792 820.5,-792 820.5,-792 814.5,-792 808.5,-786 808.5,-780 808.5,-780 808.5,-768 808.5,-768 808.5,-762 814.5,-756 820.5,-756 820.5,-756 1108.5,-756 1108.5,-756 1114.5,-756 1120.5,-762 1120.5,-768 1120.5,-768 1120.5,-780 1120.5,-780 1120.5,-786 1114.5,-792 1108.5,-792"/>
<text text-anchor="middle" x="964.5" y="-770.3" font-family="Arial" font-size="14.00">../../../../../driver/CMSIS/Include/core_cmSimd.h</text>
</g>
<!-- n143&#45;&gt;n276 -->
<g id="edge8" class="edge">
<title>n143&#45;&gt;n276</title>
<path fill="none" stroke="black" d="M1120.82,-767.45C1157.73,-763.38 1196.65,-756.99 1232,-747 1369.98,-708.02 1518.76,-622.81 1586.34,-581.45"/>
<polygon fill="black" stroke="black" points="1588.26,-584.38 1594.94,-576.16 1584.59,-578.42 1588.26,-584.38"/>
</g>
<!-- n164 -->
<g id="node14" class="node">
<title>n164</title>
<path fill="none" stroke="green" stroke-width="2" d="M559,-1224C559,-1224 102,-1224 102,-1224 96,-1224 90,-1218 90,-1212 90,-1212 90,-1200 90,-1200 90,-1194 96,-1188 102,-1188 102,-1188 559,-1188 559,-1188 565,-1188 571,-1194 571,-1200 571,-1200 571,-1212 571,-1212 571,-1218 565,-1224 559,-1224"/>
<text text-anchor="middle" x="330.5" y="-1202.3" font-family="Arial" font-size="14.00">../../../../../driver/board/linkit7697_hdk/external_flash/inc/bsp_flash_config.h</text>
</g>
<!-- n131 -->
<g id="node15" class="node">
<title>n131</title>
<path fill="none" stroke="green" stroke-width="2" d="M522.5,-1278C522.5,-1278 138.5,-1278 138.5,-1278 132.5,-1278 126.5,-1272 126.5,-1266 126.5,-1266 126.5,-1254 126.5,-1254 126.5,-1248 132.5,-1242 138.5,-1242 138.5,-1242 522.5,-1242 522.5,-1242 528.5,-1242 534.5,-1248 534.5,-1254 534.5,-1254 534.5,-1266 534.5,-1266 534.5,-1272 528.5,-1278 522.5,-1278"/>
<text text-anchor="middle" x="330.5" y="-1256.3" font-family="Arial" font-size="14.00">../../../../../driver/board/linkit7697_hdk/external_flash/module.mk</text>
</g>
<!-- n8 -->
<g id="node16" class="node">
<title>n8</title>
<path fill="none" stroke="green" stroke-width="2" d="M559.5,-1332C559.5,-1332 101.5,-1332 101.5,-1332 95.5,-1332 89.5,-1326 89.5,-1320 89.5,-1320 89.5,-1308 89.5,-1308 89.5,-1302 95.5,-1296 101.5,-1296 101.5,-1296 559.5,-1296 559.5,-1296 565.5,-1296 571.5,-1302 571.5,-1308 571.5,-1308 571.5,-1320 571.5,-1320 571.5,-1326 565.5,-1332 559.5,-1332"/>
<text text-anchor="middle" x="330.5" y="-1310.3" font-family="Arial" font-size="14.00">../../../../../driver/board/linkit7697_hdk/external_flash/src/bsp_flash_config.c</text>
</g>
<!-- n152 -->
<g id="node17" class="node">
<title>n152</title>
<path fill="none" stroke="green" stroke-width="2" d="M1049,-738C1049,-738 880,-738 880,-738 874,-738 868,-732 868,-726 868,-726 868,-714 868,-714 868,-708 874,-702 880,-702 880,-702 1049,-702 1049,-702 1055,-702 1061,-708 1061,-714 1061,-714 1061,-726 1061,-726 1061,-732 1055,-738 1049,-738"/>
<text text-anchor="middle" x="964.5" y="-716.3" font-family="Arial" font-size="14.00">../../../../../driver/chip/inc/hal.h</text>
</g>
<!-- n152&#45;&gt;n276 -->
<g id="edge9" class="edge">
<title>n152&#45;&gt;n276</title>
<path fill="none" stroke="black" d="M1061.01,-715.68C1112.17,-712.03 1176.02,-705.31 1232,-693 1357.33,-665.43 1498.21,-610.68 1572.03,-580.05"/>
<polygon fill="black" stroke="black" points="1573.68,-583.16 1581.56,-576.08 1570.98,-576.7 1573.68,-583.16"/>
</g>
<!-- n192 -->
<g id="node18" class="node">
<title>n192</title>
<path fill="none" stroke="green" stroke-width="2" d="M430.5,-1386C430.5,-1386 230.5,-1386 230.5,-1386 224.5,-1386 218.5,-1380 218.5,-1374 218.5,-1374 218.5,-1362 218.5,-1362 218.5,-1356 224.5,-1350 230.5,-1350 230.5,-1350 430.5,-1350 430.5,-1350 436.5,-1350 442.5,-1356 442.5,-1362 442.5,-1362 442.5,-1374 442.5,-1374 442.5,-1380 436.5,-1386 430.5,-1386"/>
<text text-anchor="middle" x="330.5" y="-1364.3" font-family="Arial" font-size="14.00">../../../../../driver/chip/inc/hal_adc.h</text>
</g>
<!-- n191 -->
<g id="node19" class="node">
<title>n191</title>
<path fill="none" stroke="green" stroke-width="2" d="M430.5,-1440C430.5,-1440 230.5,-1440 230.5,-1440 224.5,-1440 218.5,-1434 218.5,-1428 218.5,-1428 218.5,-1416 218.5,-1416 218.5,-1410 224.5,-1404 230.5,-1404 230.5,-1404 430.5,-1404 430.5,-1404 436.5,-1404 442.5,-1410 442.5,-1416 442.5,-1416 442.5,-1428 442.5,-1428 442.5,-1434 436.5,-1440 430.5,-1440"/>
<text text-anchor="middle" x="330.5" y="-1418.3" font-family="Arial" font-size="14.00">../../../../../driver/chip/inc/hal_aes.h</text>
</g>
<!-- n155 -->
<g id="node20" class="node">
<title>n155</title>
<path fill="none" stroke="green" stroke-width="2" d="M1072,-684C1072,-684 857,-684 857,-684 851,-684 845,-678 845,-672 845,-672 845,-660 845,-660 845,-654 851,-648 857,-648 857,-648 1072,-648 1072,-648 1078,-648 1084,-654 1084,-660 1084,-660 1084,-672 1084,-672 1084,-678 1078,-684 1072,-684"/>
<text text-anchor="middle" x="964.5" y="-662.3" font-family="Arial" font-size="14.00">../../../../../driver/chip/inc/hal_cache.h</text>
</g>
<!-- n155&#45;&gt;n276 -->
<g id="edge10" class="edge">
<title>n155&#45;&gt;n276</title>
<path fill="none" stroke="black" d="M1084.24,-656.61C1130.49,-652.26 1183.85,-646.4 1232,-639 1338.25,-622.67 1459.23,-596.45 1538.23,-578.29"/>
<polygon fill="black" stroke="black" points="1539.18,-581.66 1548.13,-576 1537.6,-574.84 1539.18,-581.66"/>
</g>
<!-- n157 -->
<g id="node21" class="node">
<title>n157</title>
<path fill="none" stroke="green" stroke-width="2" d="M1073,-630C1073,-630 856,-630 856,-630 850,-630 844,-624 844,-618 844,-618 844,-606 844,-606 844,-600 850,-594 856,-594 856,-594 1073,-594 1073,-594 1079,-594 1085,-600 1085,-606 1085,-606 1085,-618 1085,-618 1085,-624 1079,-630 1073,-630"/>
<text text-anchor="middle" x="964.5" y="-608.3" font-family="Arial" font-size="14.00">../../../../../driver/chip/inc/hal_define.h</text>
</g>
<!-- n157&#45;&gt;n276 -->
<g id="edge11" class="edge">
<title>n157&#45;&gt;n276</title>
<path fill="none" stroke="black" d="M1085.04,-602.19C1171.1,-595.13 1289.88,-585.38 1393.99,-576.84"/>
<polygon fill="black" stroke="black" points="1394.34,-580.32 1404.02,-576.01 1393.77,-573.34 1394.34,-580.32"/>
</g>
<!-- n189 -->
<g id="node22" class="node">
<title>n189</title>
<path fill="none" stroke="green" stroke-width="2" d="M431,-1494C431,-1494 230,-1494 230,-1494 224,-1494 218,-1488 218,-1482 218,-1482 218,-1470 218,-1470 218,-1464 224,-1458 230,-1458 230,-1458 431,-1458 431,-1458 437,-1458 443,-1464 443,-1470 443,-1470 443,-1482 443,-1482 443,-1488 437,-1494 431,-1494"/>
<text text-anchor="middle" x="330.5" y="-1472.3" font-family="Arial" font-size="14.00">../../../../../driver/chip/inc/hal_des.h</text>
</g>
<!-- n185 -->
<g id="node23" class="node">
<title>n185</title>
<path fill="none" stroke="green" stroke-width="2" d="M430.5,-1548C430.5,-1548 230.5,-1548 230.5,-1548 224.5,-1548 218.5,-1542 218.5,-1536 218.5,-1536 218.5,-1524 218.5,-1524 218.5,-1518 224.5,-1512 230.5,-1512 230.5,-1512 430.5,-1512 430.5,-1512 436.5,-1512 442.5,-1518 442.5,-1524 442.5,-1524 442.5,-1536 442.5,-1536 442.5,-1542 436.5,-1548 430.5,-1548"/>
<text text-anchor="middle" x="330.5" y="-1526.3" font-family="Arial" font-size="14.00">../../../../../driver/chip/inc/hal_eint.h</text>
</g>
<!-- n187 -->
<g id="node24" class="node">
<title>n187</title>
<path fill="none" stroke="green" stroke-width="2" d="M434,-1602C434,-1602 227,-1602 227,-1602 221,-1602 215,-1596 215,-1590 215,-1590 215,-1578 215,-1578 215,-1572 221,-1566 227,-1566 227,-1566 434,-1566 434,-1566 440,-1566 446,-1572 446,-1578 446,-1578 446,-1590 446,-1590 446,-1596 440,-1602 434,-1602"/>
<text text-anchor="middle" x="330.5" y="-1580.3" font-family="Arial" font-size="14.00">../../../../../driver/chip/inc/hal_flash.h</text>
</g>
<!-- n158 -->
<g id="node25" class="node">
<title>n158</title>
<path fill="none" stroke="green" stroke-width="2" d="M1071,-576C1071,-576 858,-576 858,-576 852,-576 846,-570 846,-564 846,-564 846,-552 846,-552 846,-546 852,-540 858,-540 858,-540 1071,-540 1071,-540 1077,-540 1083,-546 1083,-552 1083,-552 1083,-564 1083,-564 1083,-570 1077,-576 1071,-576"/>
<text text-anchor="middle" x="964.5" y="-554.3" font-family="Arial" font-size="14.00">../../../../../driver/chip/inc/hal_gdma.h</text>
</g>
<!-- n158&#45;&gt;n276 -->
<g id="edge12" class="edge">
<title>n158&#45;&gt;n276</title>
<path fill="none" stroke="black" d="M1083.14,-558C1133.14,-558 1194.43,-558 1257.57,-558"/>
<polygon fill="black" stroke="black" points="1257.72,-561.5 1267.72,-558 1257.72,-554.5 1257.72,-561.5"/>
</g>
<!-- n203 -->
<g id="node26" class="node">
<title>n203</title>
<path fill="none" stroke="green" stroke-width="2" d="M431,-1656C431,-1656 230,-1656 230,-1656 224,-1656 218,-1650 218,-1644 218,-1644 218,-1632 218,-1632 218,-1626 224,-1620 230,-1620 230,-1620 431,-1620 431,-1620 437,-1620 443,-1626 443,-1632 443,-1632 443,-1644 443,-1644 443,-1650 437,-1656 431,-1656"/>
<text text-anchor="middle" x="330.5" y="-1634.3" font-family="Arial" font-size="14.00">../../../../../driver/chip/inc/hal_gpc.h</text>
</g>
<!-- n159 -->
<g id="node27" class="node">
<title>n159</title>
<path fill="none" stroke="green" stroke-width="2" d="M1067,-522C1067,-522 862,-522 862,-522 856,-522 850,-516 850,-510 850,-510 850,-498 850,-498 850,-492 856,-486 862,-486 862,-486 1067,-486 1067,-486 1073,-486 1079,-492 1079,-498 1079,-498 1079,-510 1079,-510 1079,-516 1073,-522 1067,-522"/>
<text text-anchor="middle" x="964.5" y="-500.3" font-family="Arial" font-size="14.00">../../../../../driver/chip/inc/hal_gpio.h</text>
</g>
<!-- n159&#45;&gt;n276 -->
<g id="edge13" class="edge">
<title>n159&#45;&gt;n276</title>
<path fill="none" stroke="black" d="M1079.36,-513.34C1165.77,-520.44 1287.44,-530.42 1393.83,-539.15"/>
<polygon fill="black" stroke="black" points="1393.82,-542.66 1404.07,-539.99 1394.39,-535.69 1393.82,-542.66"/>
</g>
<!-- n161 -->
<g id="node28" class="node">
<title>n161</title>
<path fill="none" stroke="green" stroke-width="2" d="M1063,-468C1063,-468 866,-468 866,-468 860,-468 854,-462 854,-456 854,-456 854,-444 854,-444 854,-438 860,-432 866,-432 866,-432 1063,-432 1063,-432 1069,-432 1075,-438 1075,-444 1075,-444 1075,-456 1075,-456 1075,-462 1069,-468 1063,-468"/>
<text text-anchor="middle" x="964.5" y="-446.3" font-family="Arial" font-size="14.00">../../../../../driver/chip/inc/hal_gpt.h</text>
</g>
<!-- n161&#45;&gt;n276 -->
<g id="edge14" class="edge">
<title>n161&#45;&gt;n276</title>
<path fill="none" stroke="black" d="M1075.06,-458.54C1123.33,-462.96 1180.63,-469.11 1232,-477 1338.25,-493.33 1459.23,-519.55 1538.23,-537.71"/>
<polygon fill="black" stroke="black" points="1537.6,-541.16 1548.13,-540 1539.18,-534.34 1537.6,-541.16"/>
</g>
<!-- n183 -->
<g id="node29" class="node">
<title>n183</title>
<path fill="none" stroke="green" stroke-width="2" d="M454.5,-1710C454.5,-1710 206.5,-1710 206.5,-1710 200.5,-1710 194.5,-1704 194.5,-1698 194.5,-1698 194.5,-1686 194.5,-1686 194.5,-1680 200.5,-1674 206.5,-1674 206.5,-1674 454.5,-1674 454.5,-1674 460.5,-1674 466.5,-1680 466.5,-1686 466.5,-1686 466.5,-1698 466.5,-1698 466.5,-1704 460.5,-1710 454.5,-1710"/>
<text text-anchor="middle" x="330.5" y="-1688.3" font-family="Arial" font-size="14.00">../../../../../driver/chip/inc/hal_i2c_master.h</text>
</g>
<!-- n182 -->
<g id="node30" class="node">
<title>n182</title>
<path fill="none" stroke="green" stroke-width="2" d="M428.5,-1764C428.5,-1764 232.5,-1764 232.5,-1764 226.5,-1764 220.5,-1758 220.5,-1752 220.5,-1752 220.5,-1740 220.5,-1740 220.5,-1734 226.5,-1728 232.5,-1728 232.5,-1728 428.5,-1728 428.5,-1728 434.5,-1728 440.5,-1734 440.5,-1740 440.5,-1740 440.5,-1752 440.5,-1752 440.5,-1758 434.5,-1764 428.5,-1764"/>
<text text-anchor="middle" x="330.5" y="-1742.3" font-family="Arial" font-size="14.00">../../../../../driver/chip/inc/hal_i2s.h</text>
</g>
<!-- n207 -->
<g id="node31" class="node">
<title>n207</title>
<path fill="none" stroke="green" stroke-width="2" d="M428.5,-1818C428.5,-1818 232.5,-1818 232.5,-1818 226.5,-1818 220.5,-1812 220.5,-1806 220.5,-1806 220.5,-1794 220.5,-1794 220.5,-1788 226.5,-1782 232.5,-1782 232.5,-1782 428.5,-1782 428.5,-1782 434.5,-1782 440.5,-1788 440.5,-1794 440.5,-1794 440.5,-1806 440.5,-1806 440.5,-1812 434.5,-1818 428.5,-1818"/>
<text text-anchor="middle" x="330.5" y="-1796.3" font-family="Arial" font-size="14.00">../../../../../driver/chip/inc/hal_irrx.h</text>
</g>
<!-- n181 -->
<g id="node32" class="node">
<title>n181</title>
<path fill="none" stroke="green" stroke-width="2" d="M428,-1872C428,-1872 233,-1872 233,-1872 227,-1872 221,-1866 221,-1860 221,-1860 221,-1848 221,-1848 221,-1842 227,-1836 233,-1836 233,-1836 428,-1836 428,-1836 434,-1836 440,-1842 440,-1848 440,-1848 440,-1860 440,-1860 440,-1866 434,-1872 428,-1872"/>
<text text-anchor="middle" x="330.5" y="-1850.3" font-family="Arial" font-size="14.00">../../../../../driver/chip/inc/hal_irtx.h</text>
</g>
<!-- n175 -->
<g id="node33" class="node">
<title>n175</title>
<path fill="none" stroke="green" stroke-width="2" d="M433.5,-1926C433.5,-1926 227.5,-1926 227.5,-1926 221.5,-1926 215.5,-1920 215.5,-1914 215.5,-1914 215.5,-1902 215.5,-1902 215.5,-1896 221.5,-1890 227.5,-1890 227.5,-1890 433.5,-1890 433.5,-1890 439.5,-1890 445.5,-1896 445.5,-1902 445.5,-1902 445.5,-1914 445.5,-1914 445.5,-1920 439.5,-1926 433.5,-1926"/>
<text text-anchor="middle" x="330.5" y="-1904.3" font-family="Arial" font-size="14.00">../../../../../driver/chip/inc/hal_md5.h</text>
</g>
<!-- n162 -->
<g id="node34" class="node">
<title>n162</title>
<path fill="none" stroke="green" stroke-width="2" d="M1065.5,-414C1065.5,-414 863.5,-414 863.5,-414 857.5,-414 851.5,-408 851.5,-402 851.5,-402 851.5,-390 851.5,-390 851.5,-384 857.5,-378 863.5,-378 863.5,-378 1065.5,-378 1065.5,-378 1071.5,-378 1077.5,-384 1077.5,-390 1077.5,-390 1077.5,-402 1077.5,-402 1077.5,-408 1071.5,-414 1065.5,-414"/>
<text text-anchor="middle" x="964.5" y="-392.3" font-family="Arial" font-size="14.00">../../../../../driver/chip/inc/hal_nvic.h</text>
</g>
<!-- n162&#45;&gt;n276 -->
<g id="edge15" class="edge">
<title>n162&#45;&gt;n276</title>
<path fill="none" stroke="black" d="M1077.6,-401.58C1125.55,-405.45 1181.93,-411.99 1232,-423 1357.33,-450.57 1498.21,-505.32 1572.03,-535.95"/>
<polygon fill="black" stroke="black" points="1570.98,-539.3 1581.56,-539.92 1573.68,-532.84 1570.98,-539.3"/>
</g>
<!-- n174 -->
<g id="node35" class="node">
<title>n174</title>
<path fill="none" stroke="green" stroke-width="2" d="M434,-1980C434,-1980 227,-1980 227,-1980 221,-1980 215,-1974 215,-1968 215,-1968 215,-1956 215,-1956 215,-1950 221,-1944 227,-1944 227,-1944 434,-1944 434,-1944 440,-1944 446,-1950 446,-1956 446,-1956 446,-1968 446,-1968 446,-1974 440,-1980 434,-1980"/>
<text text-anchor="middle" x="330.5" y="-1958.3" font-family="Arial" font-size="14.00">../../../../../driver/chip/inc/hal_pwm.h</text>
</g>
<!-- n173 -->
<g id="node36" class="node">
<title>n173</title>
<path fill="none" stroke="green" stroke-width="2" d="M427,-2034C427,-2034 234,-2034 234,-2034 228,-2034 222,-2028 222,-2022 222,-2022 222,-2010 222,-2010 222,-2004 228,-1998 234,-1998 234,-1998 427,-1998 427,-1998 433,-1998 439,-2004 439,-2010 439,-2010 439,-2022 439,-2022 439,-2028 433,-2034 427,-2034"/>
<text text-anchor="middle" x="330.5" y="-2012.3" font-family="Arial" font-size="14.00">../../../../../driver/chip/inc/hal_rtc.h</text>
</g>
<!-- n172 -->
<g id="node37" class="node">
<title>n172</title>
<path fill="none" stroke="green" stroke-width="2" d="M430.5,-2088C430.5,-2088 230.5,-2088 230.5,-2088 224.5,-2088 218.5,-2082 218.5,-2076 218.5,-2076 218.5,-2064 218.5,-2064 218.5,-2058 224.5,-2052 230.5,-2052 230.5,-2052 430.5,-2052 430.5,-2052 436.5,-2052 442.5,-2058 442.5,-2064 442.5,-2064 442.5,-2076 442.5,-2076 442.5,-2082 436.5,-2088 430.5,-2088"/>
<text text-anchor="middle" x="330.5" y="-2066.3" font-family="Arial" font-size="14.00">../../../../../driver/chip/inc/hal_sha.h</text>
</g>
<!-- n179 -->
<g id="node38" class="node">
<title>n179</title>
<path fill="none" stroke="green" stroke-width="2" d="M468.5,-2142C468.5,-2142 192.5,-2142 192.5,-2142 186.5,-2142 180.5,-2136 180.5,-2130 180.5,-2130 180.5,-2118 180.5,-2118 180.5,-2112 186.5,-2106 192.5,-2106 192.5,-2106 468.5,-2106 468.5,-2106 474.5,-2106 480.5,-2112 480.5,-2118 480.5,-2118 480.5,-2130 480.5,-2130 480.5,-2136 474.5,-2142 468.5,-2142"/>
<text text-anchor="middle" x="330.5" y="-2120.3" font-family="Arial" font-size="14.00">../../../../../driver/chip/inc/hal_sleep_manager.h</text>
</g>
<!-- n171 -->
<g id="node39" class="node">
<title>n171</title>
<path fill="none" stroke="green" stroke-width="2" d="M454.5,-2196C454.5,-2196 206.5,-2196 206.5,-2196 200.5,-2196 194.5,-2190 194.5,-2184 194.5,-2184 194.5,-2172 194.5,-2172 194.5,-2166 200.5,-2160 206.5,-2160 206.5,-2160 454.5,-2160 454.5,-2160 460.5,-2160 466.5,-2166 466.5,-2172 466.5,-2172 466.5,-2184 466.5,-2184 466.5,-2190 460.5,-2196 454.5,-2196"/>
<text text-anchor="middle" x="330.5" y="-2174.3" font-family="Arial" font-size="14.00">../../../../../driver/chip/inc/hal_spi_master.h</text>
</g>
<!-- n170 -->
<g id="node40" class="node">
<title>n170</title>
<path fill="none" stroke="green" stroke-width="2" d="M449,-2250C449,-2250 212,-2250 212,-2250 206,-2250 200,-2244 200,-2238 200,-2238 200,-2226 200,-2226 200,-2220 206,-2214 212,-2214 212,-2214 449,-2214 449,-2214 455,-2214 461,-2220 461,-2226 461,-2226 461,-2238 461,-2238 461,-2244 455,-2250 449,-2250"/>
<text text-anchor="middle" x="330.5" y="-2228.3" font-family="Arial" font-size="14.00">../../../../../driver/chip/inc/hal_spi_slave.h</text>
</g>
<!-- n200 -->
<g id="node41" class="node">
<title>n200</title>
<path fill="none" stroke="green" stroke-width="2" d="M431,-2304C431,-2304 230,-2304 230,-2304 224,-2304 218,-2298 218,-2292 218,-2292 218,-2280 218,-2280 218,-2274 224,-2268 230,-2268 230,-2268 431,-2268 431,-2268 437,-2268 443,-2274 443,-2280 443,-2280 443,-2292 443,-2292 443,-2298 437,-2304 431,-2304"/>
<text text-anchor="middle" x="330.5" y="-2282.3" font-family="Arial" font-size="14.00">../../../../../driver/chip/inc/hal_trng.h</text>
</g>
<!-- n163 -->
<g id="node42" class="node">
<title>n163</title>
<path fill="none" stroke="green" stroke-width="2" d="M1064.5,-360C1064.5,-360 864.5,-360 864.5,-360 858.5,-360 852.5,-354 852.5,-348 852.5,-348 852.5,-336 852.5,-336 852.5,-330 858.5,-324 864.5,-324 864.5,-324 1064.5,-324 1064.5,-324 1070.5,-324 1076.5,-330 1076.5,-336 1076.5,-336 1076.5,-348 1076.5,-348 1076.5,-354 1070.5,-360 1064.5,-360"/>
<text text-anchor="middle" x="964.5" y="-338.3" font-family="Arial" font-size="14.00">../../../../../driver/chip/inc/hal_uart.h</text>
</g>
<!-- n163&#45;&gt;n276 -->
<g id="edge16" class="edge">
<title>n163&#45;&gt;n276</title>
<path fill="none" stroke="black" d="M1076.68,-344.62C1125.11,-347.96 1182.1,-354.9 1232,-369 1369.98,-407.98 1518.76,-493.19 1586.34,-534.55"/>
<polygon fill="black" stroke="black" points="1584.59,-537.58 1594.94,-539.84 1588.26,-531.62 1584.59,-537.58"/>
</g>
<!-- n166 -->
<g id="node43" class="node">
<title>n166</title>
<path fill="none" stroke="green" stroke-width="2" d="M430,-2358C430,-2358 231,-2358 231,-2358 225,-2358 219,-2352 219,-2346 219,-2346 219,-2334 219,-2334 219,-2328 225,-2322 231,-2322 231,-2322 430,-2322 430,-2322 436,-2322 442,-2328 442,-2334 442,-2334 442,-2346 442,-2346 442,-2352 436,-2358 430,-2358"/>
<text text-anchor="middle" x="330.5" y="-2336.3" font-family="Arial" font-size="14.00">../../../../../driver/chip/inc/hal_wdt.h</text>
</g>
<!-- n168 -->
<g id="node44" class="node">
<title>n168</title>
<path fill="none" stroke="green" stroke-width="2" d="M459,-2412C459,-2412 202,-2412 202,-2412 196,-2412 190,-2406 190,-2400 190,-2400 190,-2388 190,-2388 190,-2382 196,-2376 202,-2376 202,-2376 459,-2376 459,-2376 465,-2376 471,-2382 471,-2388 471,-2388 471,-2400 471,-2400 471,-2406 465,-2412 459,-2412"/>
<text text-anchor="middle" x="330.5" y="-2390.3" font-family="Arial" font-size="14.00">../../../../../driver/chip/mt7687/inc/dma_sw.h</text>
</g>
<!-- n167 -->
<g id="node45" class="node">
<title>n167</title>
<path fill="none" stroke="green" stroke-width="2" d="M516,-2466C516,-2466 145,-2466 145,-2466 139,-2466 133,-2460 133,-2454 133,-2454 133,-2442 133,-2442 133,-2436 139,-2430 145,-2430 145,-2430 516,-2430 516,-2430 522,-2430 528,-2436 528,-2442 528,-2442 528,-2454 528,-2454 528,-2460 522,-2466 516,-2466"/>
<text text-anchor="middle" x="330.5" y="-2444.3" font-family="Arial" font-size="14.00">../../../../../driver/chip/mt7687/inc/hal_audio_internal_service.h</text>
</g>
<!-- n151 -->
<g id="node46" class="node">
<title>n151</title>
<path fill="none" stroke="green" stroke-width="2" d="M477,-2520C477,-2520 184,-2520 184,-2520 178,-2520 172,-2514 172,-2508 172,-2508 172,-2496 172,-2496 172,-2490 178,-2484 184,-2484 184,-2484 477,-2484 477,-2484 483,-2484 489,-2490 489,-2496 489,-2496 489,-2508 489,-2508 489,-2514 483,-2520 477,-2520"/>
<text text-anchor="middle" x="330.5" y="-2498.3" font-family="Arial" font-size="14.00">../../../../../driver/chip/mt7687/inc/hal_cache_hw.h</text>
</g>
<!-- n190 -->
<g id="node47" class="node">
<title>n190</title>
<path fill="none" stroke="green" stroke-width="2" d="M491,-2574C491,-2574 170,-2574 170,-2574 164,-2574 158,-2568 158,-2562 158,-2562 158,-2550 158,-2550 158,-2544 164,-2538 170,-2538 170,-2538 491,-2538 491,-2538 497,-2538 503,-2544 503,-2550 503,-2550 503,-2562 503,-2562 503,-2568 497,-2574 491,-2574"/>
<text text-anchor="middle" x="330.5" y="-2552.3" font-family="Arial" font-size="14.00">../../../../../driver/chip/mt7687/inc/hal_cache_internal.h</text>
</g>
<!-- n165 -->
<g id="node48" class="node">
<title>n165</title>
<path fill="none" stroke="green" stroke-width="2" d="M456,-2628C456,-2628 205,-2628 205,-2628 199,-2628 193,-2622 193,-2616 193,-2616 193,-2604 193,-2604 193,-2598 199,-2592 205,-2592 205,-2592 456,-2592 456,-2592 462,-2592 468,-2598 468,-2604 468,-2604 468,-2616 468,-2616 468,-2622 462,-2628 456,-2628"/>
<text text-anchor="middle" x="330.5" y="-2606.3" font-family="Arial" font-size="14.00">../../../../../driver/chip/mt7687/inc/hal_dwt.h</text>
</g>
<!-- n154 -->
<g id="node49" class="node">
<title>n154</title>
<path fill="none" stroke="green" stroke-width="2" d="M1089,-306C1089,-306 840,-306 840,-306 834,-306 828,-300 828,-294 828,-294 828,-282 828,-282 828,-276 834,-270 840,-270 840,-270 1089,-270 1089,-270 1095,-270 1101,-276 1101,-282 1101,-282 1101,-294 1101,-294 1101,-300 1095,-306 1089,-306"/>
<text text-anchor="middle" x="964.5" y="-284.3" font-family="Arial" font-size="14.00">../../../../../driver/chip/mt7687/inc/hal_log.h</text>
</g>
<!-- n154&#45;&gt;n276 -->
<g id="edge17" class="edge">
<title>n154&#45;&gt;n276</title>
<path fill="none" stroke="black" d="M1101.22,-289.85C1143.95,-293.56 1190.73,-300.95 1232,-315 1381.29,-365.84 1532.83,-482.49 1594.61,-533.44"/>
<polygon fill="black" stroke="black" points="1592.45,-536.2 1602.38,-539.89 1596.93,-530.81 1592.45,-536.2"/>
</g>
<!-- n204 -->
<g id="node50" class="node">
<title>n204</title>
<path fill="none" stroke="green" stroke-width="2" d="M451,-2682C451,-2682 210,-2682 210,-2682 204,-2682 198,-2676 198,-2670 198,-2670 198,-2658 198,-2658 198,-2652 204,-2646 210,-2646 210,-2646 451,-2646 451,-2646 457,-2646 463,-2652 463,-2658 463,-2658 463,-2670 463,-2670 463,-2676 457,-2682 451,-2682"/>
<text text-anchor="middle" x="330.5" y="-2660.3" font-family="Arial" font-size="14.00">../../../../../driver/chip/mt7687/inc/hal_lp.h</text>
</g>
<!-- n188 -->
<g id="node51" class="node">
<title>n188</title>
<path fill="none" stroke="green" stroke-width="2" d="M484.5,-2736C484.5,-2736 176.5,-2736 176.5,-2736 170.5,-2736 164.5,-2730 164.5,-2724 164.5,-2724 164.5,-2712 164.5,-2712 164.5,-2706 170.5,-2700 176.5,-2700 176.5,-2700 484.5,-2700 484.5,-2700 490.5,-2700 496.5,-2706 496.5,-2712 496.5,-2712 496.5,-2724 496.5,-2724 496.5,-2730 490.5,-2736 484.5,-2736"/>
<text text-anchor="middle" x="330.5" y="-2714.3" font-family="Arial" font-size="14.00">../../../../../driver/chip/mt7687/inc/hal_nvic_internal.h</text>
</g>
<!-- n160 -->
<g id="node52" class="node">
<title>n160</title>
<path fill="none" stroke="green" stroke-width="2" d="M1126,-252C1126,-252 803,-252 803,-252 797,-252 791,-246 791,-240 791,-240 791,-228 791,-228 791,-222 797,-216 803,-216 803,-216 1126,-216 1126,-216 1132,-216 1138,-222 1138,-228 1138,-228 1138,-240 1138,-240 1138,-246 1132,-252 1126,-252"/>
<text text-anchor="middle" x="964.5" y="-230.3" font-family="Arial" font-size="14.00">../../../../../driver/chip/mt7687/inc/hal_pinmux_define.h</text>
</g>
<!-- n160&#45;&gt;n276 -->
<g id="edge18" class="edge">
<title>n160&#45;&gt;n276</title>
<path fill="none" stroke="black" d="M1138.32,-237.61C1170.22,-242.14 1202.68,-249.46 1232,-261 1392.31,-324.1 1543.31,-472.45 1599.94,-532.3"/>
<polygon fill="black" stroke="black" points="1597.59,-534.91 1606.99,-539.81 1602.7,-530.12 1597.59,-534.91"/>
</g>
<!-- n156 -->
<g id="node53" class="node">
<title>n156</title>
<path fill="none" stroke="green" stroke-width="2" d="M1105,-198C1105,-198 824,-198 824,-198 818,-198 812,-192 812,-186 812,-186 812,-174 812,-174 812,-168 818,-162 824,-162 824,-162 1105,-162 1105,-162 1111,-162 1117,-168 1117,-174 1117,-174 1117,-186 1117,-186 1117,-192 1111,-198 1105,-198"/>
<text text-anchor="middle" x="964.5" y="-176.3" font-family="Arial" font-size="14.00">../../../../../driver/chip/mt7687/inc/hal_platform.h</text>
</g>
<!-- n156&#45;&gt;n276 -->
<g id="edge19" class="edge">
<title>n156&#45;&gt;n276</title>
<path fill="none" stroke="black" d="M1117.06,-178.89C1155.78,-182.98 1196.48,-191.31 1232,-207 1404.17,-283.05 1552.96,-464.28 1604.35,-531.94"/>
<polygon fill="black" stroke="black" points="1601.59,-534.09 1610.41,-539.98 1607.19,-529.88 1601.59,-534.09"/>
</g>
<!-- n180 -->
<g id="node54" class="node">
<title>n180</title>
<path fill="none" stroke="green" stroke-width="2" d="M484.5,-2790C484.5,-2790 176.5,-2790 176.5,-2790 170.5,-2790 164.5,-2784 164.5,-2778 164.5,-2778 164.5,-2766 164.5,-2766 164.5,-2760 170.5,-2754 176.5,-2754 176.5,-2754 484.5,-2754 484.5,-2754 490.5,-2754 496.5,-2760 496.5,-2766 496.5,-2766 496.5,-2778 496.5,-2778 496.5,-2784 490.5,-2790 484.5,-2790"/>
<text text-anchor="middle" x="330.5" y="-2768.3" font-family="Arial" font-size="14.00">../../../../../driver/chip/mt7687/inc/hal_sleep_driver.h</text>
</g>
<!-- n201 -->
<g id="node55" class="node">
<title>n201</title>
<path fill="none" stroke="green" stroke-width="2" d="M456,-2844C456,-2844 205,-2844 205,-2844 199,-2844 193,-2838 193,-2832 193,-2832 193,-2820 193,-2820 193,-2814 199,-2808 205,-2808 205,-2808 456,-2808 456,-2808 462,-2808 468,-2814 468,-2820 468,-2820 468,-2832 468,-2832 468,-2838 462,-2844 456,-2844"/>
<text text-anchor="middle" x="330.5" y="-2822.3" font-family="Arial" font-size="14.00">../../../../../driver/chip/mt7687/inc/hal_sys.h</text>
</g>
<!-- n176 -->
<g id="node56" class="node">
<title>n176</title>
<path fill="none" stroke="green" stroke-width="2" d="M448,-2898C448,-2898 213,-2898 213,-2898 207,-2898 201,-2892 201,-2886 201,-2886 201,-2874 201,-2874 201,-2868 207,-2862 213,-2862 213,-2862 448,-2862 448,-2862 454,-2862 460,-2868 460,-2874 460,-2874 460,-2886 460,-2886 460,-2892 454,-2898 448,-2898"/>
<text text-anchor="middle" x="330.5" y="-2876.3" font-family="Arial" font-size="14.00">../../../../../driver/chip/mt7687/inc/timer.h</text>
</g>
<!-- n149 -->
<g id="node57" class="node">
<title>n149</title>
<path fill="none" stroke="green" stroke-width="2" d="M1076.5,-144C1076.5,-144 852.5,-144 852.5,-144 846.5,-144 840.5,-138 840.5,-132 840.5,-132 840.5,-120 840.5,-120 840.5,-114 846.5,-108 852.5,-108 852.5,-108 1076.5,-108 1076.5,-108 1082.5,-108 1088.5,-114 1088.5,-120 1088.5,-120 1088.5,-132 1088.5,-132 1088.5,-138 1082.5,-144 1076.5,-144"/>
<text text-anchor="middle" x="964.5" y="-122.3" font-family="Arial" font-size="14.00">../../../../../driver/chip/mt7687/inc/top.h</text>
</g>
<!-- n149&#45;&gt;n276 -->
<g id="edge20" class="edge">
<title>n149&#45;&gt;n276</title>
<path fill="none" stroke="black" d="M1088.76,-120.87C1135.59,-123.36 1188.17,-131.74 1232,-153 1415.52,-242.03 1559.88,-454.84 1607.07,-530.62"/>
<polygon fill="black" stroke="black" points="1604.36,-532.9 1612.58,-539.57 1610.32,-529.22 1604.36,-532.9"/>
</g>
<!-- n146 -->
<g id="node58" class="node">
<title>n146</title>
<path fill="none" stroke="green" stroke-width="2" d="M460.5,-2952C460.5,-2952 200.5,-2952 200.5,-2952 194.5,-2952 188.5,-2946 188.5,-2940 188.5,-2940 188.5,-2928 188.5,-2928 188.5,-2922 194.5,-2916 200.5,-2916 200.5,-2916 460.5,-2916 460.5,-2916 466.5,-2916 472.5,-2922 472.5,-2928 472.5,-2928 472.5,-2940 472.5,-2940 472.5,-2946 466.5,-2952 460.5,-2952"/>
<text text-anchor="middle" x="330.5" y="-2930.3" font-family="Arial" font-size="14.00">../../../../../driver/chip/mt7687/inc/type_def.h</text>
</g>
<!-- n134 -->
<g id="node59" class="node">
<title>n134</title>
<path fill="none" stroke="green" stroke-width="2" d="M450.5,-3006C450.5,-3006 210.5,-3006 210.5,-3006 204.5,-3006 198.5,-3000 198.5,-2994 198.5,-2994 198.5,-2982 198.5,-2982 198.5,-2976 204.5,-2970 210.5,-2970 210.5,-2970 450.5,-2970 450.5,-2970 456.5,-2970 462.5,-2976 462.5,-2982 462.5,-2982 462.5,-2994 462.5,-2994 462.5,-3000 456.5,-3006 450.5,-3006"/>
<text text-anchor="middle" x="330.5" y="-2984.3" font-family="Arial" font-size="14.00">../../../../../driver/chip/mt7687/module.mk</text>
</g>
<!-- n133 -->
<g id="node60" class="node">
<title>n133</title>
<path fill="none" stroke="green" stroke-width="2" d="M480,-3060C480,-3060 181,-3060 181,-3060 175,-3060 169,-3054 169,-3048 169,-3048 169,-3036 169,-3036 169,-3030 175,-3024 181,-3024 181,-3024 480,-3024 480,-3024 486,-3024 492,-3030 492,-3036 492,-3036 492,-3048 492,-3048 492,-3054 486,-3060 480,-3060"/>
<text text-anchor="middle" x="330.5" y="-3038.3" font-family="Arial" font-size="14.00">../../../../../driver/chip/mt7687/src/GCC/module.mk</text>
</g>
<!-- n128 -->
<g id="node61" class="node">
<title>n128</title>
<path fill="none" stroke="green" stroke-width="2" d="M487.5,-3114C487.5,-3114 173.5,-3114 173.5,-3114 167.5,-3114 161.5,-3108 161.5,-3102 161.5,-3102 161.5,-3090 161.5,-3090 161.5,-3084 167.5,-3078 173.5,-3078 173.5,-3078 487.5,-3078 487.5,-3078 493.5,-3078 499.5,-3084 499.5,-3090 499.5,-3090 499.5,-3102 499.5,-3102 499.5,-3108 493.5,-3114 487.5,-3114"/>
<text text-anchor="middle" x="330.5" y="-3092.3" font-family="Arial" font-size="14.00">../../../../../driver/chip/mt7687/src/common/cos_api.c</text>
</g>
<!-- n126 -->
<g id="node62" class="node">
<title>n126</title>
<path fill="none" stroke="green" stroke-width="2" d="M476.5,-3168C476.5,-3168 184.5,-3168 184.5,-3168 178.5,-3168 172.5,-3162 172.5,-3156 172.5,-3156 172.5,-3144 172.5,-3144 172.5,-3138 178.5,-3132 184.5,-3132 184.5,-3132 476.5,-3132 476.5,-3132 482.5,-3132 488.5,-3138 488.5,-3144 488.5,-3144 488.5,-3156 488.5,-3156 488.5,-3162 482.5,-3168 476.5,-3168"/>
<text text-anchor="middle" x="330.5" y="-3146.3" font-family="Arial" font-size="14.00">../../../../../driver/chip/mt7687/src/common/dma.c</text>
</g>
<!-- n124 -->
<g id="node63" class="node">
<title>n124</title>
<path fill="none" stroke="green" stroke-width="2" d="M491.5,-3222C491.5,-3222 169.5,-3222 169.5,-3222 163.5,-3222 157.5,-3216 157.5,-3210 157.5,-3210 157.5,-3198 157.5,-3198 157.5,-3192 163.5,-3186 169.5,-3186 169.5,-3186 491.5,-3186 491.5,-3186 497.5,-3186 503.5,-3192 503.5,-3198 503.5,-3198 503.5,-3210 503.5,-3210 503.5,-3216 497.5,-3222 491.5,-3222"/>
<text text-anchor="middle" x="330.5" y="-3200.3" font-family="Arial" font-size="14.00">../../../../../driver/chip/mt7687/src/common/flash_sfc.c</text>
</g>
<!-- n122 -->
<g id="node64" class="node">
<title>n122</title>
<path fill="none" stroke="green" stroke-width="2" d="M472.5,-3276C472.5,-3276 188.5,-3276 188.5,-3276 182.5,-3276 176.5,-3270 176.5,-3264 176.5,-3264 176.5,-3252 176.5,-3252 176.5,-3246 182.5,-3240 188.5,-3240 188.5,-3240 472.5,-3240 472.5,-3240 478.5,-3240 484.5,-3246 484.5,-3252 484.5,-3252 484.5,-3264 484.5,-3264 484.5,-3270 478.5,-3276 472.5,-3276"/>
<text text-anchor="middle" x="330.5" y="-3254.3" font-family="Arial" font-size="14.00">../../../../../driver/chip/mt7687/src/common/gpt.c</text>
</g>
<!-- n120 -->
<g id="node65" class="node">
<title>n120</title>
<path fill="none" stroke="green" stroke-width="2" d="M487.5,-3330C487.5,-3330 173.5,-3330 173.5,-3330 167.5,-3330 161.5,-3324 161.5,-3318 161.5,-3318 161.5,-3306 161.5,-3306 161.5,-3300 167.5,-3294 173.5,-3294 173.5,-3294 487.5,-3294 487.5,-3294 493.5,-3294 499.5,-3300 499.5,-3306 499.5,-3306 499.5,-3318 499.5,-3318 499.5,-3324 493.5,-3330 487.5,-3330"/>
<text text-anchor="middle" x="330.5" y="-3308.3" font-family="Arial" font-size="14.00">../../../../../driver/chip/mt7687/src/common/hal_I2C.c</text>
</g>
<!-- n112 -->
<g id="node66" class="node">
<title>n112</title>
<path fill="none" stroke="green" stroke-width="2" d="M487.5,-3384C487.5,-3384 173.5,-3384 173.5,-3384 167.5,-3384 161.5,-3378 161.5,-3372 161.5,-3372 161.5,-3360 161.5,-3360 161.5,-3354 167.5,-3348 173.5,-3348 173.5,-3348 487.5,-3348 487.5,-3348 493.5,-3348 499.5,-3354 499.5,-3360 499.5,-3360 499.5,-3372 499.5,-3372 499.5,-3378 493.5,-3384 487.5,-3384"/>
<text text-anchor="middle" x="330.5" y="-3362.3" font-family="Arial" font-size="14.00">../../../../../driver/chip/mt7687/src/common/hal_gpc.c</text>
</g>
<!-- n110 -->
<g id="node67" class="node">
<title>n110</title>
<path fill="none" stroke="green" stroke-width="2" d="M510,-3438C510,-3438 151,-3438 151,-3438 145,-3438 139,-3432 139,-3426 139,-3426 139,-3414 139,-3414 139,-3408 145,-3402 151,-3402 151,-3402 510,-3402 510,-3402 516,-3402 522,-3408 522,-3414 522,-3414 522,-3426 522,-3426 522,-3432 516,-3438 510,-3438"/>
<text text-anchor="middle" x="330.5" y="-3416.3" font-family="Arial" font-size="14.00">../../../../../driver/chip/mt7687/src/common/hal_gpio_7687.c</text>
</g>
<!-- n118 -->
<g id="node68" class="node">
<title>n118</title>
<path fill="none" stroke="green" stroke-width="2" d="M511.5,-3492C511.5,-3492 149.5,-3492 149.5,-3492 143.5,-3492 137.5,-3486 137.5,-3480 137.5,-3480 137.5,-3468 137.5,-3468 137.5,-3462 143.5,-3456 149.5,-3456 149.5,-3456 511.5,-3456 511.5,-3456 517.5,-3456 523.5,-3462 523.5,-3468 523.5,-3468 523.5,-3480 523.5,-3480 523.5,-3486 517.5,-3492 511.5,-3492"/>
<text text-anchor="middle" x="330.5" y="-3470.3" font-family="Arial" font-size="14.00">../../../../../driver/chip/mt7687/src/common/hal_i2s_internal.c</text>
</g>
<!-- n108 -->
<g id="node69" class="node">
<title>n108</title>
<path fill="none" stroke="green" stroke-width="2" d="M485,-3546C485,-3546 176,-3546 176,-3546 170,-3546 164,-3540 164,-3534 164,-3534 164,-3522 164,-3522 164,-3516 170,-3510 176,-3510 176,-3510 485,-3510 485,-3510 491,-3510 497,-3516 497,-3522 497,-3522 497,-3534 497,-3534 497,-3540 491,-3546 485,-3546"/>
<text text-anchor="middle" x="330.5" y="-3524.3" font-family="Arial" font-size="14.00">../../../../../driver/chip/mt7687/src/common/hal_irrx.c</text>
</g>
<!-- n106 -->
<g id="node70" class="node">
<title>n106</title>
<path fill="none" stroke="green" stroke-width="2" d="M481.5,-3600C481.5,-3600 179.5,-3600 179.5,-3600 173.5,-3600 167.5,-3594 167.5,-3588 167.5,-3588 167.5,-3576 167.5,-3576 167.5,-3570 173.5,-3564 179.5,-3564 179.5,-3564 481.5,-3564 481.5,-3564 487.5,-3564 493.5,-3570 493.5,-3576 493.5,-3576 493.5,-3588 493.5,-3588 493.5,-3594 487.5,-3600 481.5,-3600"/>
<text text-anchor="middle" x="330.5" y="-3578.3" font-family="Arial" font-size="14.00">../../../../../driver/chip/mt7687/src/common/hal_lp.c</text>
</g>
<!-- n104 -->
<g id="node71" class="node">
<title>n104</title>
<path fill="none" stroke="green" stroke-width="2" d="M489,-3654C489,-3654 172,-3654 172,-3654 166,-3654 160,-3648 160,-3642 160,-3642 160,-3630 160,-3630 160,-3624 166,-3618 172,-3618 172,-3618 489,-3618 489,-3618 495,-3618 501,-3624 501,-3630 501,-3630 501,-3642 501,-3642 501,-3648 495,-3654 489,-3654"/>
<text text-anchor="middle" x="330.5" y="-3632.3" font-family="Arial" font-size="14.00">../../../../../driver/chip/mt7687/src/common/hal_pcnt.c</text>
</g>
<!-- n102 -->
<g id="node72" class="node">
<title>n102</title>
<path fill="none" stroke="green" stroke-width="2" d="M498,-3708C498,-3708 163,-3708 163,-3708 157,-3708 151,-3702 151,-3696 151,-3696 151,-3684 151,-3684 151,-3678 157,-3672 163,-3672 163,-3672 498,-3672 498,-3672 504,-3672 510,-3678 510,-3684 510,-3684 510,-3696 510,-3696 510,-3702 504,-3708 498,-3708"/>
<text text-anchor="middle" x="330.5" y="-3686.3" font-family="Arial" font-size="14.00">../../../../../driver/chip/mt7687/src/common/hal_pinmux.c</text>
</g>
<!-- n100 -->
<g id="node73" class="node">
<title>n100</title>
<path fill="none" stroke="green" stroke-width="2" d="M491,-3762C491,-3762 170,-3762 170,-3762 164,-3762 158,-3756 158,-3750 158,-3750 158,-3738 158,-3738 158,-3732 164,-3726 170,-3726 170,-3726 491,-3726 491,-3726 497,-3726 503,-3732 503,-3738 503,-3738 503,-3750 503,-3750 503,-3756 497,-3762 491,-3762"/>
<text text-anchor="middle" x="330.5" y="-3740.3" font-family="Arial" font-size="14.00">../../../../../driver/chip/mt7687/src/common/hal_spim.c</text>
</g>
<!-- n98 -->
<g id="node74" class="node">
<title>n98</title>
<path fill="none" stroke="green" stroke-width="2" d="M486.5,-3816C486.5,-3816 174.5,-3816 174.5,-3816 168.5,-3816 162.5,-3810 162.5,-3804 162.5,-3804 162.5,-3792 162.5,-3792 162.5,-3786 168.5,-3780 174.5,-3780 174.5,-3780 486.5,-3780 486.5,-3780 492.5,-3780 498.5,-3786 498.5,-3792 498.5,-3792 498.5,-3804 498.5,-3804 498.5,-3810 492.5,-3816 486.5,-3816"/>
<text text-anchor="middle" x="330.5" y="-3794.3" font-family="Arial" font-size="14.00">../../../../../driver/chip/mt7687/src/common/hal_sys.c</text>
</g>
<!-- n96 -->
<g id="node75" class="node">
<title>n96</title>
<path fill="none" stroke="green" stroke-width="2" d="M487.5,-3870C487.5,-3870 173.5,-3870 173.5,-3870 167.5,-3870 161.5,-3864 161.5,-3858 161.5,-3858 161.5,-3846 161.5,-3846 161.5,-3840 167.5,-3834 173.5,-3834 173.5,-3834 487.5,-3834 487.5,-3834 493.5,-3834 499.5,-3840 499.5,-3846 499.5,-3846 499.5,-3858 499.5,-3858 499.5,-3864 493.5,-3870 487.5,-3870"/>
<text text-anchor="middle" x="330.5" y="-3848.3" font-family="Arial" font-size="14.00">../../../../../driver/chip/mt7687/src/common/hal_trng.c</text>
</g>
<!-- n94 -->
<g id="node76" class="node">
<title>n94</title>
<path fill="none" stroke="green" stroke-width="2" d="M485,-3924C485,-3924 176,-3924 176,-3924 170,-3924 164,-3918 164,-3912 164,-3912 164,-3900 164,-3900 164,-3894 170,-3888 176,-3888 176,-3888 485,-3888 485,-3888 491,-3888 497,-3894 497,-3900 497,-3900 497,-3912 497,-3912 497,-3918 491,-3924 485,-3924"/>
<text text-anchor="middle" x="330.5" y="-3902.3" font-family="Arial" font-size="14.00">../../../../../driver/chip/mt7687/src/common/hal_uid.c</text>
</g>
<!-- n92 -->
<g id="node77" class="node">
<title>n92</title>
<path fill="none" stroke="green" stroke-width="2" d="M472,-3978C472,-3978 189,-3978 189,-3978 183,-3978 177,-3972 177,-3966 177,-3966 177,-3954 177,-3954 177,-3948 183,-3942 189,-3942 189,-3942 472,-3942 472,-3942 478,-3942 484,-3948 484,-3954 484,-3954 484,-3966 484,-3966 484,-3972 478,-3978 472,-3978"/>
<text text-anchor="middle" x="330.5" y="-3956.3" font-family="Arial" font-size="14.00">../../../../../driver/chip/mt7687/src/common/i2c.c</text>
</g>
<!-- n210 -->
<g id="node78" class="node">
<title>n210</title>
<path fill="none" stroke="green" stroke-width="2" d="M512,-4032C512,-4032 149,-4032 149,-4032 143,-4032 137,-4026 137,-4020 137,-4020 137,-4008 137,-4008 137,-4002 143,-3996 149,-3996 149,-3996 512,-3996 512,-3996 518,-3996 524,-4002 524,-4008 524,-4008 524,-4020 524,-4020 524,-4026 518,-4032 512,-4032"/>
<text text-anchor="middle" x="330.5" y="-4010.3" font-family="Arial" font-size="14.00">../../../../../driver/chip/mt7687/src/common/include/cos_api.h</text>
</g>
<!-- n209 -->
<g id="node79" class="node">
<title>n209</title>
<path fill="none" stroke="green" stroke-width="2" d="M507,-4086C507,-4086 154,-4086 154,-4086 148,-4086 142,-4080 142,-4074 142,-4074 142,-4062 142,-4062 142,-4056 148,-4050 154,-4050 154,-4050 507,-4050 507,-4050 513,-4050 519,-4056 519,-4062 519,-4062 519,-4074 519,-4074 519,-4080 513,-4086 507,-4086"/>
<text text-anchor="middle" x="330.5" y="-4064.3" font-family="Arial" font-size="14.00">../../../../../driver/chip/mt7687/src/common/include/debug.h</text>
</g>
<!-- n178 -->
<g id="node80" class="node">
<title>n178</title>
<path fill="none" stroke="green" stroke-width="2" d="M513.5,-4140C513.5,-4140 147.5,-4140 147.5,-4140 141.5,-4140 135.5,-4134 135.5,-4128 135.5,-4128 135.5,-4116 135.5,-4116 135.5,-4110 141.5,-4104 147.5,-4104 147.5,-4104 513.5,-4104 513.5,-4104 519.5,-4104 525.5,-4110 525.5,-4116 525.5,-4116 525.5,-4128 525.5,-4128 525.5,-4134 519.5,-4140 513.5,-4140"/>
<text text-anchor="middle" x="330.5" y="-4118.3" font-family="Arial" font-size="14.00">../../../../../driver/chip/mt7687/src/common/include/dma_hw.h</text>
</g>
<!-- n177 -->
<g id="node81" class="node">
<title>n177</title>
<path fill="none" stroke="green" stroke-width="2" d="M497,-4194C497,-4194 164,-4194 164,-4194 158,-4194 152,-4188 152,-4182 152,-4182 152,-4170 152,-4170 152,-4164 158,-4158 164,-4158 164,-4158 497,-4158 497,-4158 503,-4158 509,-4164 509,-4170 509,-4170 509,-4182 509,-4182 509,-4188 503,-4194 497,-4194"/>
<text text-anchor="middle" x="330.5" y="-4172.3" font-family="Arial" font-size="14.00">../../../../../driver/chip/mt7687/src/common/include/gpt.h</text>
</g>
<!-- n199 -->
<g id="node82" class="node">
<title>n199</title>
<path fill="none" stroke="green" stroke-width="2" d="M534.5,-4248C534.5,-4248 126.5,-4248 126.5,-4248 120.5,-4248 114.5,-4242 114.5,-4236 114.5,-4236 114.5,-4224 114.5,-4224 114.5,-4218 120.5,-4212 126.5,-4212 126.5,-4212 534.5,-4212 534.5,-4212 540.5,-4212 546.5,-4218 546.5,-4224 546.5,-4224 546.5,-4236 546.5,-4236 546.5,-4242 540.5,-4248 534.5,-4248"/>
<text text-anchor="middle" x="330.5" y="-4226.3" font-family="Arial" font-size="14.00">../../../../../driver/chip/mt7687/src/common/include/hal_gpio_7687.h</text>
</g>
<!-- n208 -->
<g id="node83" class="node">
<title>n208</title>
<path fill="none" stroke="green" stroke-width="2" d="M536,-4302C536,-4302 125,-4302 125,-4302 119,-4302 113,-4296 113,-4290 113,-4290 113,-4278 113,-4278 113,-4272 119,-4266 125,-4266 125,-4266 536,-4266 536,-4266 542,-4266 548,-4272 548,-4278 548,-4278 548,-4290 548,-4290 548,-4296 542,-4302 536,-4302"/>
<text text-anchor="middle" x="330.5" y="-4280.3" font-family="Arial" font-size="14.00">../../../../../driver/chip/mt7687/src/common/include/hal_i2s_internal.h</text>
</g>
<!-- n197 -->
<g id="node84" class="node">
<title>n197</title>
<path fill="none" stroke="green" stroke-width="2" d="M522.5,-4356C522.5,-4356 138.5,-4356 138.5,-4356 132.5,-4356 126.5,-4350 126.5,-4344 126.5,-4344 126.5,-4332 126.5,-4332 126.5,-4326 132.5,-4320 138.5,-4320 138.5,-4320 522.5,-4320 522.5,-4320 528.5,-4320 534.5,-4326 534.5,-4332 534.5,-4332 534.5,-4344 534.5,-4344 534.5,-4350 528.5,-4356 522.5,-4356"/>
<text text-anchor="middle" x="330.5" y="-4334.3" font-family="Arial" font-size="14.00">../../../../../driver/chip/mt7687/src/common/include/hal_pinmux.h</text>
</g>
<!-- n184 -->
<g id="node85" class="node">
<title>n184</title>
<path fill="none" stroke="green" stroke-width="2" d="M528.5,-4410C528.5,-4410 132.5,-4410 132.5,-4410 126.5,-4410 120.5,-4404 120.5,-4398 120.5,-4398 120.5,-4386 120.5,-4386 120.5,-4380 126.5,-4374 132.5,-4374 132.5,-4374 528.5,-4374 528.5,-4374 534.5,-4374 540.5,-4380 540.5,-4386 540.5,-4386 540.5,-4398 540.5,-4398 540.5,-4404 534.5,-4410 528.5,-4410"/>
<text text-anchor="middle" x="330.5" y="-4388.3" font-family="Arial" font-size="14.00">../../../../../driver/chip/mt7687/src/common/include/low_hal_gpio.h</text>
</g>
<!-- n202 -->
<g id="node86" class="node">
<title>n202</title>
<path fill="none" stroke="green" stroke-width="2" d="M525.5,-4464C525.5,-4464 135.5,-4464 135.5,-4464 129.5,-4464 123.5,-4458 123.5,-4452 123.5,-4452 123.5,-4440 123.5,-4440 123.5,-4434 129.5,-4428 135.5,-4428 135.5,-4428 525.5,-4428 525.5,-4428 531.5,-4428 537.5,-4434 537.5,-4440 537.5,-4440 537.5,-4452 537.5,-4452 537.5,-4458 531.5,-4464 525.5,-4464"/>
<text text-anchor="middle" x="330.5" y="-4442.3" font-family="Arial" font-size="14.00">../../../../../driver/chip/mt7687/src/common/include/low_hal_wdt.h</text>
</g>
<!-- n194 -->
<g id="node87" class="node">
<title>n194</title>
<path fill="none" stroke="green" stroke-width="2" d="M516,-4518C516,-4518 145,-4518 145,-4518 139,-4518 133,-4512 133,-4506 133,-4506 133,-4494 133,-4494 133,-4488 139,-4482 145,-4482 145,-4482 516,-4482 516,-4482 522,-4482 528,-4488 528,-4494 528,-4494 528,-4506 528,-4506 528,-4512 522,-4518 516,-4518"/>
<text text-anchor="middle" x="330.5" y="-4496.3" font-family="Arial" font-size="14.00">../../../../../driver/chip/mt7687/src/common/include/mem_util.h</text>
</g>
<!-- n195 -->
<g id="node88" class="node">
<title>n195</title>
<path fill="none" stroke="green" stroke-width="2" d="M499.5,-4572C499.5,-4572 161.5,-4572 161.5,-4572 155.5,-4572 149.5,-4566 149.5,-4560 149.5,-4560 149.5,-4548 149.5,-4548 149.5,-4542 155.5,-4536 161.5,-4536 161.5,-4536 499.5,-4536 499.5,-4536 505.5,-4536 511.5,-4542 511.5,-4548 511.5,-4548 511.5,-4560 511.5,-4560 511.5,-4566 505.5,-4572 499.5,-4572"/>
<text text-anchor="middle" x="330.5" y="-4550.3" font-family="Arial" font-size="14.00">../../../../../driver/chip/mt7687/src/common/include/nvic.h</text>
</g>
<!-- n198 -->
<g id="node89" class="node">
<title>n198</title>
<path fill="none" stroke="green" stroke-width="2" d="M523,-4626C523,-4626 138,-4626 138,-4626 132,-4626 126,-4620 126,-4614 126,-4614 126,-4602 126,-4602 126,-4596 132,-4590 138,-4590 138,-4590 523,-4590 523,-4590 529,-4590 535,-4596 535,-4602 535,-4602 535,-4614 535,-4614 535,-4620 529,-4626 523,-4626"/>
<text text-anchor="middle" x="330.5" y="-4604.3" font-family="Arial" font-size="14.00">../../../../../driver/chip/mt7687/src/common/include/nvic_extern.h</text>
</g>
<!-- n186 -->
<g id="node90" class="node">
<title>n186</title>
<path fill="none" stroke="green" stroke-width="2" d="M509.5,-4680C509.5,-4680 151.5,-4680 151.5,-4680 145.5,-4680 139.5,-4674 139.5,-4668 139.5,-4668 139.5,-4656 139.5,-4656 139.5,-4650 145.5,-4644 151.5,-4644 151.5,-4644 509.5,-4644 509.5,-4644 515.5,-4644 521.5,-4650 521.5,-4656 521.5,-4656 521.5,-4668 521.5,-4668 521.5,-4674 515.5,-4680 509.5,-4680"/>
<text text-anchor="middle" x="330.5" y="-4658.3" font-family="Arial" font-size="14.00">../../../../../driver/chip/mt7687/src/common/include/pinmux.h</text>
</g>
<!-- n196 -->
<g id="node91" class="node">
<title>n196</title>
<path fill="none" stroke="green" stroke-width="2" d="M515.5,-4734C515.5,-4734 145.5,-4734 145.5,-4734 139.5,-4734 133.5,-4728 133.5,-4722 133.5,-4722 133.5,-4710 133.5,-4710 133.5,-4704 139.5,-4698 145.5,-4698 145.5,-4698 515.5,-4698 515.5,-4698 521.5,-4698 527.5,-4704 527.5,-4710 527.5,-4710 527.5,-4722 527.5,-4722 527.5,-4728 521.5,-4734 515.5,-4734"/>
<text text-anchor="middle" x="330.5" y="-4712.3" font-family="Arial" font-size="14.00">../../../../../driver/chip/mt7687/src/common/include/spi_flash.h</text>
</g>
<!-- n169 -->
<g id="node92" class="node">
<title>n169</title>
<path fill="none" stroke="green" stroke-width="2" d="M498.5,-4788C498.5,-4788 162.5,-4788 162.5,-4788 156.5,-4788 150.5,-4782 150.5,-4776 150.5,-4776 150.5,-4764 150.5,-4764 150.5,-4758 156.5,-4752 162.5,-4752 162.5,-4752 498.5,-4752 498.5,-4752 504.5,-4752 510.5,-4758 510.5,-4764 510.5,-4764 510.5,-4776 510.5,-4776 510.5,-4782 504.5,-4788 498.5,-4788"/>
<text text-anchor="middle" x="330.5" y="-4766.3" font-family="Arial" font-size="14.00">../../../../../driver/chip/mt7687/src/common/include/uart.h</text>
</g>
<!-- n193 -->
<g id="node93" class="node">
<title>n193</title>
<path fill="none" stroke="green" stroke-width="2" d="M511.5,-4842C511.5,-4842 149.5,-4842 149.5,-4842 143.5,-4842 137.5,-4836 137.5,-4830 137.5,-4830 137.5,-4818 137.5,-4818 137.5,-4812 143.5,-4806 149.5,-4806 149.5,-4806 511.5,-4806 511.5,-4806 517.5,-4806 523.5,-4812 523.5,-4818 523.5,-4818 523.5,-4830 523.5,-4830 523.5,-4836 517.5,-4842 511.5,-4842"/>
<text text-anchor="middle" x="330.5" y="-4820.3" font-family="Arial" font-size="14.00">../../../../../driver/chip/mt7687/src/common/include/uart_hw.h</text>
</g>
<!-- n90 -->
<g id="node94" class="node">
<title>n90</title>
<path fill="none" stroke="green" stroke-width="2" d="M475.5,-4896C475.5,-4896 185.5,-4896 185.5,-4896 179.5,-4896 173.5,-4890 173.5,-4884 173.5,-4884 173.5,-4872 173.5,-4872 173.5,-4866 179.5,-4860 185.5,-4860 185.5,-4860 475.5,-4860 475.5,-4860 481.5,-4860 487.5,-4866 487.5,-4872 487.5,-4872 487.5,-4884 487.5,-4884 487.5,-4890 481.5,-4896 475.5,-4896"/>
<text text-anchor="middle" x="330.5" y="-4874.3" font-family="Arial" font-size="14.00">../../../../../driver/chip/mt7687/src/common/ir_tx.c</text>
</g>
<!-- n88 -->
<g id="node95" class="node">
<title>n88</title>
<path fill="none" stroke="green" stroke-width="2" d="M504,-4950C504,-4950 157,-4950 157,-4950 151,-4950 145,-4944 145,-4938 145,-4938 145,-4926 145,-4926 145,-4920 151,-4914 157,-4914 157,-4914 504,-4914 504,-4914 510,-4914 516,-4920 516,-4926 516,-4926 516,-4938 516,-4938 516,-4944 510,-4950 504,-4950"/>
<text text-anchor="middle" x="330.5" y="-4928.3" font-family="Arial" font-size="14.00">../../../../../driver/chip/mt7687/src/common/low_hal_gpio.c</text>
</g>
<!-- n86 -->
<g id="node96" class="node">
<title>n86</title>
<path fill="none" stroke="green" stroke-width="2" d="M499.5,-5004C499.5,-5004 161.5,-5004 161.5,-5004 155.5,-5004 149.5,-4998 149.5,-4992 149.5,-4992 149.5,-4980 149.5,-4980 149.5,-4974 155.5,-4968 161.5,-4968 161.5,-4968 499.5,-4968 499.5,-4968 505.5,-4968 511.5,-4974 511.5,-4980 511.5,-4980 511.5,-4992 511.5,-4992 511.5,-4998 505.5,-5004 499.5,-5004"/>
<text text-anchor="middle" x="330.5" y="-4982.3" font-family="Arial" font-size="14.00">../../../../../driver/chip/mt7687/src/common/low_hal_irrx.c</text>
</g>
<!-- n116 -->
<g id="node97" class="node">
<title>n116</title>
<path fill="none" stroke="green" stroke-width="2" d="M499.5,-5058C499.5,-5058 161.5,-5058 161.5,-5058 155.5,-5058 149.5,-5052 149.5,-5046 149.5,-5046 149.5,-5034 149.5,-5034 149.5,-5028 155.5,-5022 161.5,-5022 161.5,-5022 499.5,-5022 499.5,-5022 505.5,-5022 511.5,-5028 511.5,-5034 511.5,-5034 511.5,-5046 511.5,-5046 511.5,-5052 505.5,-5058 499.5,-5058"/>
<text text-anchor="middle" x="330.5" y="-5036.3" font-family="Arial" font-size="14.00">../../../../../driver/chip/mt7687/src/common/low_hal_irtx.c</text>
</g>
<!-- n114 -->
<g id="node98" class="node">
<title>n114</title>
<path fill="none" stroke="green" stroke-width="2" d="M505.5,-5112C505.5,-5112 155.5,-5112 155.5,-5112 149.5,-5112 143.5,-5106 143.5,-5100 143.5,-5100 143.5,-5088 143.5,-5088 143.5,-5082 149.5,-5076 155.5,-5076 155.5,-5076 505.5,-5076 505.5,-5076 511.5,-5076 517.5,-5082 517.5,-5088 517.5,-5088 517.5,-5100 517.5,-5100 517.5,-5106 511.5,-5112 505.5,-5112"/>
<text text-anchor="middle" x="330.5" y="-5090.3" font-family="Arial" font-size="14.00">../../../../../driver/chip/mt7687/src/common/low_hal_pwm.c</text>
</g>
<!-- n84 -->
<g id="node99" class="node">
<title>n84</title>
<path fill="none" stroke="green" stroke-width="2" d="M498,-5166C498,-5166 163,-5166 163,-5166 157,-5166 151,-5160 151,-5154 151,-5154 151,-5142 151,-5142 151,-5136 157,-5130 163,-5130 163,-5130 498,-5130 498,-5130 504,-5130 510,-5136 510,-5142 510,-5142 510,-5154 510,-5154 510,-5160 504,-5166 498,-5166"/>
<text text-anchor="middle" x="330.5" y="-5144.3" font-family="Arial" font-size="14.00">../../../../../driver/chip/mt7687/src/common/low_hal_rtc.c</text>
</g>
<!-- n82 -->
<g id="node100" class="node">
<title>n82</title>
<path fill="none" stroke="green" stroke-width="2" d="M501,-5220C501,-5220 160,-5220 160,-5220 154,-5220 148,-5214 148,-5208 148,-5208 148,-5196 148,-5196 148,-5190 154,-5184 160,-5184 160,-5184 501,-5184 501,-5184 507,-5184 513,-5190 513,-5196 513,-5196 513,-5208 513,-5208 513,-5214 507,-5220 501,-5220"/>
<text text-anchor="middle" x="330.5" y="-5198.3" font-family="Arial" font-size="14.00">../../../../../driver/chip/mt7687/src/common/low_hal_wdt.c</text>
</g>
<!-- n80 -->
<g id="node101" class="node">
<title>n80</title>
<path fill="none" stroke="green" stroke-width="2" d="M475,-5274C475,-5274 186,-5274 186,-5274 180,-5274 174,-5268 174,-5262 174,-5262 174,-5250 174,-5250 174,-5244 180,-5238 186,-5238 186,-5238 475,-5238 475,-5238 481,-5238 487,-5244 487,-5250 487,-5250 487,-5262 487,-5262 487,-5268 481,-5274 475,-5274"/>
<text text-anchor="middle" x="330.5" y="-5252.3" font-family="Arial" font-size="14.00">../../../../../driver/chip/mt7687/src/common/nvic.c</text>
</g>
<!-- n78 -->
<g id="node102" class="node">
<title>n78</title>
<path fill="none" stroke="green" stroke-width="2" d="M485,-5328C485,-5328 176,-5328 176,-5328 170,-5328 164,-5322 164,-5316 164,-5316 164,-5304 164,-5304 164,-5298 170,-5292 176,-5292 176,-5292 485,-5292 485,-5292 491,-5292 497,-5298 497,-5304 497,-5304 497,-5316 497,-5316 497,-5322 491,-5328 485,-5328"/>
<text text-anchor="middle" x="330.5" y="-5306.3" font-family="Arial" font-size="14.00">../../../../../driver/chip/mt7687/src/common/pinmux.c</text>
</g>
<!-- n76 -->
<g id="node103" class="node">
<title>n76</title>
<path fill="none" stroke="green" stroke-width="2" d="M477.5,-5382C477.5,-5382 183.5,-5382 183.5,-5382 177.5,-5382 171.5,-5376 171.5,-5370 171.5,-5370 171.5,-5358 171.5,-5358 171.5,-5352 177.5,-5346 183.5,-5346 183.5,-5346 477.5,-5346 477.5,-5346 483.5,-5346 489.5,-5352 489.5,-5358 489.5,-5358 489.5,-5370 489.5,-5370 489.5,-5376 483.5,-5382 477.5,-5382"/>
<text text-anchor="middle" x="330.5" y="-5360.3" font-family="Arial" font-size="14.00">../../../../../driver/chip/mt7687/src/common/pwm.c</text>
</g>
<!-- n74 -->
<g id="node104" class="node">
<title>n74</title>
<path fill="none" stroke="green" stroke-width="2" d="M472.5,-5436C472.5,-5436 188.5,-5436 188.5,-5436 182.5,-5436 176.5,-5430 176.5,-5424 176.5,-5424 176.5,-5412 176.5,-5412 176.5,-5406 182.5,-5400 188.5,-5400 188.5,-5400 472.5,-5400 472.5,-5400 478.5,-5400 484.5,-5406 484.5,-5412 484.5,-5412 484.5,-5424 484.5,-5424 484.5,-5430 478.5,-5436 472.5,-5436"/>
<text text-anchor="middle" x="330.5" y="-5414.3" font-family="Arial" font-size="14.00">../../../../../driver/chip/mt7687/src/common/sfc.c</text>
</g>
<!-- n72 -->
<g id="node105" class="node">
<title>n72</title>
<path fill="none" stroke="green" stroke-width="2" d="M491,-5490C491,-5490 170,-5490 170,-5490 164,-5490 158,-5484 158,-5478 158,-5478 158,-5466 158,-5466 158,-5460 164,-5454 170,-5454 170,-5454 491,-5454 491,-5454 497,-5454 503,-5460 503,-5466 503,-5466 503,-5478 503,-5478 503,-5484 497,-5490 491,-5490"/>
<text text-anchor="middle" x="330.5" y="-5468.3" font-family="Arial" font-size="14.00">../../../../../driver/chip/mt7687/src/common/spi_flash.c</text>
</g>
<!-- n70 -->
<g id="node106" class="node">
<title>n70</title>
<path fill="none" stroke="green" stroke-width="2" d="M478,-5544C478,-5544 183,-5544 183,-5544 177,-5544 171,-5538 171,-5532 171,-5532 171,-5520 171,-5520 171,-5514 177,-5508 183,-5508 183,-5508 478,-5508 478,-5508 484,-5508 490,-5514 490,-5520 490,-5520 490,-5532 490,-5532 490,-5538 484,-5544 478,-5544"/>
<text text-anchor="middle" x="330.5" y="-5522.3" font-family="Arial" font-size="14.00">../../../../../driver/chip/mt7687/src/common/spim.c</text>
</g>
<!-- n68 -->
<g id="node107" class="node">
<title>n68</title>
<path fill="none" stroke="green" stroke-width="2" d="M478.5,-5598C478.5,-5598 182.5,-5598 182.5,-5598 176.5,-5598 170.5,-5592 170.5,-5586 170.5,-5586 170.5,-5574 170.5,-5574 170.5,-5568 176.5,-5562 182.5,-5562 182.5,-5562 478.5,-5562 478.5,-5562 484.5,-5562 490.5,-5568 490.5,-5574 490.5,-5574 490.5,-5586 490.5,-5586 490.5,-5592 484.5,-5598 478.5,-5598"/>
<text text-anchor="middle" x="330.5" y="-5576.3" font-family="Arial" font-size="14.00">../../../../../driver/chip/mt7687/src/common/timer.c</text>
</g>
<!-- n66 -->
<g id="node108" class="node">
<title>n66</title>
<path fill="none" stroke="green" stroke-width="2" d="M472.5,-5652C472.5,-5652 188.5,-5652 188.5,-5652 182.5,-5652 176.5,-5646 176.5,-5640 176.5,-5640 176.5,-5628 176.5,-5628 176.5,-5622 182.5,-5616 188.5,-5616 188.5,-5616 472.5,-5616 472.5,-5616 478.5,-5616 484.5,-5622 484.5,-5628 484.5,-5628 484.5,-5640 484.5,-5640 484.5,-5646 478.5,-5652 472.5,-5652"/>
<text text-anchor="middle" x="330.5" y="-5630.3" font-family="Arial" font-size="14.00">../../../../../driver/chip/mt7687/src/common/top.c</text>
</g>
<!-- n64 -->
<g id="node109" class="node">
<title>n64</title>
<path fill="none" stroke="green" stroke-width="2" d="M474,-5706C474,-5706 187,-5706 187,-5706 181,-5706 175,-5700 175,-5694 175,-5694 175,-5682 175,-5682 175,-5676 181,-5670 187,-5670 187,-5670 474,-5670 474,-5670 480,-5670 486,-5676 486,-5682 486,-5682 486,-5694 486,-5694 486,-5700 480,-5706 474,-5706"/>
<text text-anchor="middle" x="330.5" y="-5684.3" font-family="Arial" font-size="14.00">../../../../../driver/chip/mt7687/src/common/uart.c</text>
</g>
<!-- n60 -->
<g id="node110" class="node">
<title>n60</title>
<path fill="none" stroke="green" stroke-width="2" d="M457.5,-5760C457.5,-5760 203.5,-5760 203.5,-5760 197.5,-5760 191.5,-5754 191.5,-5748 191.5,-5748 191.5,-5736 191.5,-5736 191.5,-5730 197.5,-5724 203.5,-5724 203.5,-5724 457.5,-5724 457.5,-5724 463.5,-5724 469.5,-5730 469.5,-5736 469.5,-5736 469.5,-5748 469.5,-5748 469.5,-5754 463.5,-5760 457.5,-5760"/>
<text text-anchor="middle" x="330.5" y="-5738.3" font-family="Arial" font-size="14.00">../../../../../driver/chip/mt7687/src/hal_adc.c</text>
</g>
<!-- n58 -->
<g id="node111" class="node">
<title>n58</title>
<path fill="none" stroke="green" stroke-width="2" d="M457.5,-5814C457.5,-5814 203.5,-5814 203.5,-5814 197.5,-5814 191.5,-5808 191.5,-5802 191.5,-5802 191.5,-5790 191.5,-5790 191.5,-5784 197.5,-5778 203.5,-5778 203.5,-5778 457.5,-5778 457.5,-5778 463.5,-5778 469.5,-5784 469.5,-5790 469.5,-5790 469.5,-5802 469.5,-5802 469.5,-5808 463.5,-5814 457.5,-5814"/>
<text text-anchor="middle" x="330.5" y="-5792.3" font-family="Arial" font-size="14.00">../../../../../driver/chip/mt7687/src/hal_aes.c</text>
</g>
<!-- n16 -->
<g id="node112" class="node">
<title>n16</title>
<path fill="none" stroke="green" stroke-width="2" d="M517,-5868C517,-5868 144,-5868 144,-5868 138,-5868 132,-5862 132,-5856 132,-5856 132,-5844 132,-5844 132,-5838 138,-5832 144,-5832 144,-5832 517,-5832 517,-5832 523,-5832 529,-5838 529,-5844 529,-5844 529,-5856 529,-5856 529,-5862 523,-5868 517,-5868"/>
<text text-anchor="middle" x="330.5" y="-5846.3" font-family="Arial" font-size="14.00">../../../../../driver/chip/mt7687/src/hal_audio_internal_service.c</text>
</g>
<!-- n56 -->
<g id="node113" class="node">
<title>n56</title>
<path fill="none" stroke="green" stroke-width="2" d="M465,-5922C465,-5922 196,-5922 196,-5922 190,-5922 184,-5916 184,-5910 184,-5910 184,-5898 184,-5898 184,-5892 190,-5886 196,-5886 196,-5886 465,-5886 465,-5886 471,-5886 477,-5892 477,-5898 477,-5898 477,-5910 477,-5910 477,-5916 471,-5922 465,-5922"/>
<text text-anchor="middle" x="330.5" y="-5900.3" font-family="Arial" font-size="14.00">../../../../../driver/chip/mt7687/src/hal_cache.c</text>
</g>
<!-- n54 -->
<g id="node114" class="node">
<title>n54</title>
<path fill="none" stroke="green" stroke-width="2" d="M492,-5976C492,-5976 169,-5976 169,-5976 163,-5976 157,-5970 157,-5964 157,-5964 157,-5952 157,-5952 157,-5946 163,-5940 169,-5940 169,-5940 492,-5940 492,-5940 498,-5940 504,-5946 504,-5952 504,-5952 504,-5964 504,-5964 504,-5970 498,-5976 492,-5976"/>
<text text-anchor="middle" x="330.5" y="-5954.3" font-family="Arial" font-size="14.00">../../../../../driver/chip/mt7687/src/hal_cache_internal.c</text>
</g>
<!-- n52 -->
<g id="node115" class="node">
<title>n52</title>
<path fill="none" stroke="green" stroke-width="2" d="M458,-6030C458,-6030 203,-6030 203,-6030 197,-6030 191,-6024 191,-6018 191,-6018 191,-6006 191,-6006 191,-6000 197,-5994 203,-5994 203,-5994 458,-5994 458,-5994 464,-5994 470,-6000 470,-6006 470,-6006 470,-6018 470,-6018 470,-6024 464,-6030 458,-6030"/>
<text text-anchor="middle" x="330.5" y="-6008.3" font-family="Arial" font-size="14.00">../../../../../driver/chip/mt7687/src/hal_des.c</text>
</g>
<!-- n10 -->
<g id="node116" class="node">
<title>n10</title>
<path fill="none" stroke="green" stroke-width="2" d="M457,-6084C457,-6084 204,-6084 204,-6084 198,-6084 192,-6078 192,-6072 192,-6072 192,-6060 192,-6060 192,-6054 198,-6048 204,-6048 204,-6048 457,-6048 457,-6048 463,-6048 469,-6054 469,-6060 469,-6060 469,-6072 469,-6072 469,-6078 463,-6084 457,-6084"/>
<text text-anchor="middle" x="330.5" y="-6062.3" font-family="Arial" font-size="14.00">../../../../../driver/chip/mt7687/src/hal_dwt.c</text>
</g>
<!-- n50 -->
<g id="node117" class="node">
<title>n50</title>
<path fill="none" stroke="green" stroke-width="2" d="M457.5,-6138C457.5,-6138 203.5,-6138 203.5,-6138 197.5,-6138 191.5,-6132 191.5,-6126 191.5,-6126 191.5,-6114 191.5,-6114 191.5,-6108 197.5,-6102 203.5,-6102 203.5,-6102 457.5,-6102 457.5,-6102 463.5,-6102 469.5,-6108 469.5,-6114 469.5,-6114 469.5,-6126 469.5,-6126 469.5,-6132 463.5,-6138 457.5,-6138"/>
<text text-anchor="middle" x="330.5" y="-6116.3" font-family="Arial" font-size="14.00">../../../../../driver/chip/mt7687/src/hal_eint.c</text>
</g>
<!-- n44 -->
<g id="node118" class="node">
<title>n44</title>
<path fill="none" stroke="green" stroke-width="2" d="M461,-6192C461,-6192 200,-6192 200,-6192 194,-6192 188,-6186 188,-6180 188,-6180 188,-6168 188,-6168 188,-6162 194,-6156 200,-6156 200,-6156 461,-6156 461,-6156 467,-6156 473,-6162 473,-6168 473,-6168 473,-6180 473,-6180 473,-6186 467,-6192 461,-6192"/>
<text text-anchor="middle" x="330.5" y="-6170.3" font-family="Arial" font-size="14.00">../../../../../driver/chip/mt7687/src/hal_flash.c</text>
</g>
<!-- n34 -->
<g id="node119" class="node">
<title>n34</title>
<path fill="none" stroke="green" stroke-width="2" d="M464,-6246C464,-6246 197,-6246 197,-6246 191,-6246 185,-6240 185,-6234 185,-6234 185,-6222 185,-6222 185,-6216 191,-6210 197,-6210 197,-6210 464,-6210 464,-6210 470,-6210 476,-6216 476,-6222 476,-6222 476,-6234 476,-6234 476,-6240 470,-6246 464,-6246"/>
<text text-anchor="middle" x="330.5" y="-6224.3" font-family="Arial" font-size="14.00">../../../../../driver/chip/mt7687/src/hal_gdma.c</text>
</g>
<!-- n42 -->
<g id="node120" class="node">
<title>n42</title>
<path fill="none" stroke="green" stroke-width="2" d="M460,-6300C460,-6300 201,-6300 201,-6300 195,-6300 189,-6294 189,-6288 189,-6288 189,-6276 189,-6276 189,-6270 195,-6264 201,-6264 201,-6264 460,-6264 460,-6264 466,-6264 472,-6270 472,-6276 472,-6276 472,-6288 472,-6288 472,-6294 466,-6300 460,-6300"/>
<text text-anchor="middle" x="330.5" y="-6278.3" font-family="Arial" font-size="14.00">../../../../../driver/chip/mt7687/src/hal_gpio.c</text>
</g>
<!-- n32 -->
<g id="node121" class="node">
<title>n32</title>
<path fill="none" stroke="green" stroke-width="2" d="M456,-6354C456,-6354 205,-6354 205,-6354 199,-6354 193,-6348 193,-6342 193,-6342 193,-6330 193,-6330 193,-6324 199,-6318 205,-6318 205,-6318 456,-6318 456,-6318 462,-6318 468,-6324 468,-6330 468,-6330 468,-6342 468,-6342 468,-6348 462,-6354 456,-6354"/>
<text text-anchor="middle" x="330.5" y="-6332.3" font-family="Arial" font-size="14.00">../../../../../driver/chip/mt7687/src/hal_gpt.c</text>
</g>
<!-- n40 -->
<g id="node122" class="node">
<title>n40</title>
<path fill="none" stroke="green" stroke-width="2" d="M481.5,-6408C481.5,-6408 179.5,-6408 179.5,-6408 173.5,-6408 167.5,-6402 167.5,-6396 167.5,-6396 167.5,-6384 167.5,-6384 167.5,-6378 173.5,-6372 179.5,-6372 179.5,-6372 481.5,-6372 481.5,-6372 487.5,-6372 493.5,-6378 493.5,-6384 493.5,-6384 493.5,-6396 493.5,-6396 493.5,-6402 487.5,-6408 481.5,-6408"/>
<text text-anchor="middle" x="330.5" y="-6386.3" font-family="Arial" font-size="14.00">../../../../../driver/chip/mt7687/src/hal_i2c_master.c</text>
</g>
<!-- n38 -->
<g id="node123" class="node">
<title>n38</title>
<path fill="none" stroke="green" stroke-width="2" d="M455.5,-6462C455.5,-6462 205.5,-6462 205.5,-6462 199.5,-6462 193.5,-6456 193.5,-6450 193.5,-6450 193.5,-6438 193.5,-6438 193.5,-6432 199.5,-6426 205.5,-6426 205.5,-6426 455.5,-6426 455.5,-6426 461.5,-6426 467.5,-6432 467.5,-6438 467.5,-6438 467.5,-6450 467.5,-6450 467.5,-6456 461.5,-6462 455.5,-6462"/>
<text text-anchor="middle" x="330.5" y="-6440.3" font-family="Arial" font-size="14.00">../../../../../driver/chip/mt7687/src/hal_i2s.c</text>
</g>
<!-- n36 -->
<g id="node124" class="node">
<title>n36</title>
<path fill="none" stroke="green" stroke-width="2" d="M455,-6516C455,-6516 206,-6516 206,-6516 200,-6516 194,-6510 194,-6504 194,-6504 194,-6492 194,-6492 194,-6486 200,-6480 206,-6480 206,-6480 455,-6480 455,-6480 461,-6480 467,-6486 467,-6492 467,-6492 467,-6504 467,-6504 467,-6510 461,-6516 455,-6516"/>
<text text-anchor="middle" x="330.5" y="-6494.3" font-family="Arial" font-size="14.00">../../../../../driver/chip/mt7687/src/hal_irtx.c</text>
</g>
<!-- n62 -->
<g id="node125" class="node">
<title>n62</title>
<path fill="none" stroke="green" stroke-width="2" d="M456,-6570C456,-6570 205,-6570 205,-6570 199,-6570 193,-6564 193,-6558 193,-6558 193,-6546 193,-6546 193,-6540 199,-6534 205,-6534 205,-6534 456,-6534 456,-6534 462,-6534 468,-6540 468,-6546 468,-6546 468,-6558 468,-6558 468,-6564 462,-6570 456,-6570"/>
<text text-anchor="middle" x="330.5" y="-6548.3" font-family="Arial" font-size="14.00">../../../../../driver/chip/mt7687/src/hal_log.c</text>
</g>
<!-- n30 -->
<g id="node126" class="node">
<title>n30</title>
<path fill="none" stroke="green" stroke-width="2" d="M460.5,-6624C460.5,-6624 200.5,-6624 200.5,-6624 194.5,-6624 188.5,-6618 188.5,-6612 188.5,-6612 188.5,-6600 188.5,-6600 188.5,-6594 194.5,-6588 200.5,-6588 200.5,-6588 460.5,-6588 460.5,-6588 466.5,-6588 472.5,-6594 472.5,-6600 472.5,-6600 472.5,-6612 472.5,-6612 472.5,-6618 466.5,-6624 460.5,-6624"/>
<text text-anchor="middle" x="330.5" y="-6602.3" font-family="Arial" font-size="14.00">../../../../../driver/chip/mt7687/src/hal_md5.c</text>
</g>
<!-- n12 -->
<g id="node127" class="node">
<title>n12</title>
<path fill="none" stroke="green" stroke-width="2" d="M461,-6678C461,-6678 200,-6678 200,-6678 194,-6678 188,-6672 188,-6666 188,-6666 188,-6654 188,-6654 188,-6648 194,-6642 200,-6642 200,-6642 461,-6642 461,-6642 467,-6642 473,-6648 473,-6654 473,-6654 473,-6666 473,-6666 473,-6672 467,-6678 461,-6678"/>
<text text-anchor="middle" x="330.5" y="-6656.3" font-family="Arial" font-size="14.00">../../../../../driver/chip/mt7687/src/hal_misc.c</text>
</g>
<!-- n48 -->
<g id="node128" class="node">
<title>n48</title>
<path fill="none" stroke="green" stroke-width="2" d="M458.5,-6732C458.5,-6732 202.5,-6732 202.5,-6732 196.5,-6732 190.5,-6726 190.5,-6720 190.5,-6720 190.5,-6708 190.5,-6708 190.5,-6702 196.5,-6696 202.5,-6696 202.5,-6696 458.5,-6696 458.5,-6696 464.5,-6696 470.5,-6702 470.5,-6708 470.5,-6708 470.5,-6720 470.5,-6720 470.5,-6726 464.5,-6732 458.5,-6732"/>
<text text-anchor="middle" x="330.5" y="-6710.3" font-family="Arial" font-size="14.00">../../../../../driver/chip/mt7687/src/hal_nvic.c</text>
</g>
<!-- n46 -->
<g id="node129" class="node">
<title>n46</title>
<path fill="none" stroke="green" stroke-width="2" d="M485,-6786C485,-6786 176,-6786 176,-6786 170,-6786 164,-6780 164,-6774 164,-6774 164,-6762 164,-6762 164,-6756 170,-6750 176,-6750 176,-6750 485,-6750 485,-6750 491,-6750 497,-6756 497,-6762 497,-6762 497,-6774 497,-6774 497,-6780 491,-6786 485,-6786"/>
<text text-anchor="middle" x="330.5" y="-6764.3" font-family="Arial" font-size="14.00">../../../../../driver/chip/mt7687/src/hal_nvic_internal.c</text>
</g>
<!-- n28 -->
<g id="node130" class="node">
<title>n28</title>
<path fill="none" stroke="green" stroke-width="2" d="M461,-6840C461,-6840 200,-6840 200,-6840 194,-6840 188,-6834 188,-6828 188,-6828 188,-6816 188,-6816 188,-6810 194,-6804 200,-6804 200,-6804 461,-6804 461,-6804 467,-6804 473,-6810 473,-6816 473,-6816 473,-6828 473,-6828 473,-6834 467,-6840 461,-6840"/>
<text text-anchor="middle" x="330.5" y="-6818.3" font-family="Arial" font-size="14.00">../../../../../driver/chip/mt7687/src/hal_pwm.c</text>
</g>
<!-- n26 -->
<g id="node131" class="node">
<title>n26</title>
<path fill="none" stroke="green" stroke-width="2" d="M454,-6894C454,-6894 207,-6894 207,-6894 201,-6894 195,-6888 195,-6882 195,-6882 195,-6870 195,-6870 195,-6864 201,-6858 207,-6858 207,-6858 454,-6858 454,-6858 460,-6858 466,-6864 466,-6870 466,-6870 466,-6882 466,-6882 466,-6888 460,-6894 454,-6894"/>
<text text-anchor="middle" x="330.5" y="-6872.3" font-family="Arial" font-size="14.00">../../../../../driver/chip/mt7687/src/hal_rtc.c</text>
</g>
<!-- n24 -->
<g id="node132" class="node">
<title>n24</title>
<path fill="none" stroke="green" stroke-width="2" d="M457.5,-6948C457.5,-6948 203.5,-6948 203.5,-6948 197.5,-6948 191.5,-6942 191.5,-6936 191.5,-6936 191.5,-6924 191.5,-6924 191.5,-6918 197.5,-6912 203.5,-6912 203.5,-6912 457.5,-6912 457.5,-6912 463.5,-6912 469.5,-6918 469.5,-6924 469.5,-6924 469.5,-6936 469.5,-6936 469.5,-6942 463.5,-6948 457.5,-6948"/>
<text text-anchor="middle" x="330.5" y="-6926.3" font-family="Arial" font-size="14.00">../../../../../driver/chip/mt7687/src/hal_sha.c</text>
</g>
<!-- n22 -->
<g id="node133" class="node">
<title>n22</title>
<path fill="none" stroke="green" stroke-width="2" d="M481.5,-7002C481.5,-7002 179.5,-7002 179.5,-7002 173.5,-7002 167.5,-6996 167.5,-6990 167.5,-6990 167.5,-6978 167.5,-6978 167.5,-6972 173.5,-6966 179.5,-6966 179.5,-6966 481.5,-6966 481.5,-6966 487.5,-6966 493.5,-6972 493.5,-6978 493.5,-6978 493.5,-6990 493.5,-6990 493.5,-6996 487.5,-7002 481.5,-7002"/>
<text text-anchor="middle" x="330.5" y="-6980.3" font-family="Arial" font-size="14.00">../../../../../driver/chip/mt7687/src/hal_spi_master.c</text>
</g>
<!-- n20 -->
<g id="node134" class="node">
<title>n20</title>
<path fill="none" stroke="green" stroke-width="2" d="M476,-7056C476,-7056 185,-7056 185,-7056 179,-7056 173,-7050 173,-7044 173,-7044 173,-7032 173,-7032 173,-7026 179,-7020 185,-7020 185,-7020 476,-7020 476,-7020 482,-7020 488,-7026 488,-7032 488,-7032 488,-7044 488,-7044 488,-7050 482,-7056 476,-7056"/>
<text text-anchor="middle" x="330.5" y="-7034.3" font-family="Arial" font-size="14.00">../../../../../driver/chip/mt7687/src/hal_spi_slave.c</text>
</g>
<!-- n18 -->
<g id="node135" class="node">
<title>n18</title>
<path fill="none" stroke="green" stroke-width="2" d="M457.5,-7110C457.5,-7110 203.5,-7110 203.5,-7110 197.5,-7110 191.5,-7104 191.5,-7098 191.5,-7098 191.5,-7086 191.5,-7086 191.5,-7080 197.5,-7074 203.5,-7074 203.5,-7074 457.5,-7074 457.5,-7074 463.5,-7074 469.5,-7080 469.5,-7086 469.5,-7086 469.5,-7098 469.5,-7098 469.5,-7104 463.5,-7110 457.5,-7110"/>
<text text-anchor="middle" x="330.5" y="-7088.3" font-family="Arial" font-size="14.00">../../../../../driver/chip/mt7687/src/hal_uart.c</text>
</g>
<!-- n14 -->
<g id="node136" class="node">
<title>n14</title>
<path fill="none" stroke="green" stroke-width="2" d="M457,-7164C457,-7164 204,-7164 204,-7164 198,-7164 192,-7158 192,-7152 192,-7152 192,-7140 192,-7140 192,-7134 198,-7128 204,-7128 204,-7128 457,-7128 457,-7128 463,-7128 469,-7134 469,-7140 469,-7140 469,-7152 469,-7152 469,-7158 463,-7164 457,-7164"/>
<text text-anchor="middle" x="330.5" y="-7142.3" font-family="Arial" font-size="14.00">../../../../../driver/chip/mt7687/src/hal_wdt.c</text>
</g>
<!-- n206 -->
<g id="node137" class="node">
<title>n206</title>
<path fill="none" stroke="green" stroke-width="2" d="M496.5,-7218C496.5,-7218 164.5,-7218 164.5,-7218 158.5,-7218 152.5,-7212 152.5,-7206 152.5,-7206 152.5,-7194 152.5,-7194 152.5,-7188 158.5,-7182 164.5,-7182 164.5,-7182 496.5,-7182 496.5,-7182 502.5,-7182 508.5,-7188 508.5,-7194 508.5,-7194 508.5,-7206 508.5,-7206 508.5,-7212 502.5,-7218 496.5,-7218"/>
<text text-anchor="middle" x="330.5" y="-7196.3" font-family="Arial" font-size="14.00">../../../../../middleware/MTK/connsys/inc/connsys_bus.h</text>
</g>
<!-- n205 -->
<g id="node138" class="node">
<title>n205</title>
<path fill="none" stroke="green" stroke-width="2" d="M502.5,-7272C502.5,-7272 158.5,-7272 158.5,-7272 152.5,-7272 146.5,-7266 146.5,-7260 146.5,-7260 146.5,-7248 146.5,-7248 146.5,-7242 152.5,-7236 158.5,-7236 158.5,-7236 502.5,-7236 502.5,-7236 508.5,-7236 514.5,-7242 514.5,-7248 514.5,-7248 514.5,-7260 514.5,-7260 514.5,-7266 508.5,-7272 502.5,-7272"/>
<text text-anchor="middle" x="330.5" y="-7250.3" font-family="Arial" font-size="14.00">../../../../../middleware/MTK/connsys/inc/connsys_driver.h</text>
</g>
<!-- n129 -->
<g id="node139" class="node">
<title>n129</title>
<path fill="none" stroke="green" stroke-width="2" d="M464.5,-7326C464.5,-7326 196.5,-7326 196.5,-7326 190.5,-7326 184.5,-7320 184.5,-7314 184.5,-7314 184.5,-7302 184.5,-7302 184.5,-7296 190.5,-7290 196.5,-7290 196.5,-7290 464.5,-7290 464.5,-7290 470.5,-7290 476.5,-7296 476.5,-7302 476.5,-7302 476.5,-7314 476.5,-7314 476.5,-7320 470.5,-7326 464.5,-7326"/>
<text text-anchor="middle" x="330.5" y="-7304.3" font-family="Arial" font-size="14.00">../../../../../middleware/MTK/verno/module.mk</text>
</g>
<!-- n282 -->
<g id="node140" class="node">
<title>n282</title>
<path fill="none" stroke="green" stroke-width="2" d="M529.5,-7380C529.5,-7380 131.5,-7380 131.5,-7380 125.5,-7380 119.5,-7374 119.5,-7368 119.5,-7368 119.5,-7356 119.5,-7356 119.5,-7350 125.5,-7344 131.5,-7344 131.5,-7344 529.5,-7344 529.5,-7344 535.5,-7344 541.5,-7350 541.5,-7356 541.5,-7356 541.5,-7368 541.5,-7368 541.5,-7374 535.5,-7380 529.5,-7380"/>
<text text-anchor="middle" x="330.5" y="-7358.3" font-family="Arial" font-size="14.00">../../../../../prebuilt/driver/chip/mt7687/lib/libhal_core_CM4_GCC.a</text>
</g>
<!-- n283 -->
<g id="node141" class="node">
<title>n283</title>
<path fill="none" stroke="green" stroke-width="2" d="M545.5,-7434C545.5,-7434 115.5,-7434 115.5,-7434 109.5,-7434 103.5,-7428 103.5,-7422 103.5,-7422 103.5,-7410 103.5,-7410 103.5,-7404 109.5,-7398 115.5,-7398 115.5,-7398 545.5,-7398 545.5,-7398 551.5,-7398 557.5,-7404 557.5,-7410 557.5,-7410 557.5,-7422 557.5,-7422 557.5,-7428 551.5,-7434 545.5,-7434"/>
<text text-anchor="middle" x="330.5" y="-7412.3" font-family="Arial" font-size="14.00">../../../../../prebuilt/driver/chip/mt7687/lib/libhal_protected_CM4_GCC.a</text>
</g>
<!-- n281 -->
<g id="node142" class="node">
<title>n281</title>
<path fill="none" stroke="green" stroke-width="2" d="M627,-7488C627,-7488 34,-7488 34,-7488 28,-7488 22,-7482 22,-7476 22,-7476 22,-7464 22,-7464 22,-7458 28,-7452 34,-7452 34,-7452 627,-7452 627,-7452 633,-7452 639,-7458 639,-7464 639,-7464 639,-7476 639,-7476 639,-7482 633,-7488 627,-7488"/>
<text text-anchor="middle" x="330.5" y="-7466.3" font-family="Arial" font-size="14.00">../../../../../project/linkit7697_hdk/hal_examples/uart_loopback_data_dma/GCC/startup_mt7687.s</text>
</g>
<!-- n279 -->
<g id="node143" class="node">
<title>n279</title>
<path fill="none" stroke="green" stroke-width="2" d="M602.5,-7542C602.5,-7542 58.5,-7542 58.5,-7542 52.5,-7542 46.5,-7536 46.5,-7530 46.5,-7530 46.5,-7518 46.5,-7518 46.5,-7512 52.5,-7506 58.5,-7506 58.5,-7506 602.5,-7506 602.5,-7506 608.5,-7506 614.5,-7512 614.5,-7518 614.5,-7518 614.5,-7530 614.5,-7530 614.5,-7536 608.5,-7542 602.5,-7542"/>
<text text-anchor="middle" x="330.5" y="-7520.3" font-family="Arial" font-size="14.00">../../../../../project/linkit7697_hdk/hal_examples/uart_loopback_data_dma/GCC/syscalls.c</text>
</g>
<!-- n6 -->
<g id="node144" class="node">
<title>n6</title>
<path fill="none" stroke="green" stroke-width="2" d="M1220,-90C1220,-90 709,-90 709,-90 703,-90 697,-84 697,-78 697,-78 697,-66 697,-66 697,-60 703,-54 709,-54 709,-54 1220,-54 1220,-54 1226,-54 1232,-60 1232,-66 1232,-66 1232,-78 1232,-78 1232,-84 1226,-90 1220,-90"/>
<text text-anchor="middle" x="964.5" y="-68.3" font-family="Arial" font-size="14.00">../../../../../project/linkit7697_hdk/hal_examples/uart_loopback_data_dma/src/main.c</text>
</g>
<!-- n6&#45;&gt;n276 -->
<g id="edge21" class="edge">
<title>n6&#45;&gt;n276</title>
<path fill="none" stroke="black" d="M1212.94,-90.12C1219.45,-92.81 1225.82,-95.76 1232,-99 1428.11,-201.79 1567.31,-447.83 1609.85,-530.43"/>
<polygon fill="black" stroke="black" points="1606.9,-532.35 1614.56,-539.67 1613.14,-529.17 1606.9,-532.35"/>
</g>
<!-- n4 -->
<g id="node145" class="node">
<title>n4</title>
<path fill="none" stroke="green" stroke-width="2" d="M622.5,-7596C622.5,-7596 38.5,-7596 38.5,-7596 32.5,-7596 26.5,-7590 26.5,-7584 26.5,-7584 26.5,-7572 26.5,-7572 26.5,-7566 32.5,-7560 38.5,-7560 38.5,-7560 622.5,-7560 622.5,-7560 628.5,-7560 634.5,-7566 634.5,-7572 634.5,-7572 634.5,-7584 634.5,-7584 634.5,-7590 628.5,-7596 622.5,-7596"/>
<text text-anchor="middle" x="330.5" y="-7574.3" font-family="Arial" font-size="14.00">../../../../../project/linkit7697_hdk/hal_examples/uart_loopback_data_dma/src/system_mt7687.c</text>
</g>
<!-- n150 -->
<g id="node146" class="node">
<title>n150</title>
<path fill="none" stroke="green" stroke-width="2" d="M382,-7650C382,-7650 279,-7650 279,-7650 273,-7650 267,-7644 267,-7638 267,-7638 267,-7626 267,-7626 267,-7620 273,-7614 279,-7614 279,-7614 382,-7614 382,-7614 388,-7614 394,-7620 394,-7626 394,-7626 394,-7638 394,-7638 394,-7644 388,-7650 382,-7650"/>
<text text-anchor="middle" x="330.5" y="-7628.3" font-family="Arial" font-size="14.00">../inc/flash_map.h</text>
</g>
<!-- n153 -->
<g id="node147" class="node">
<title>n153</title>
<path fill="none" stroke="green" stroke-width="2" d="M1042,-36C1042,-36 887,-36 887,-36 881,-36 875,-30 875,-24 875,-24 875,-12 875,-12 875,-6 881,0 887,0 887,0 1042,0 1042,0 1048,0 1054,-6 1054,-12 1054,-12 1054,-24 1054,-24 1054,-30 1048,-36 1042,-36"/>
<text text-anchor="middle" x="964.5" y="-14.3" font-family="Arial" font-size="14.00">../inc/hal_feature_config.h</text>
</g>
<!-- n153&#45;&gt;n276 -->
<g id="edge22" class="edge">
<title>n153&#45;&gt;n276</title>
<path fill="none" stroke="black" d="M1054.18,-9.79C1108.72,-8.75 1178.22,-14.92 1232,-45 1441.25,-162.03 1574.24,-441.89 1612.24,-530.56"/>
<polygon fill="black" stroke="black" points="1609.09,-532.09 1616.21,-539.94 1615.54,-529.37 1609.09,-532.09"/>
</g>
<!-- n275 -->
<g id="node148" class="node">
<title>n275</title>
<path fill="none" stroke="red" stroke-width="2" d="M649,-7704C649,-7704 12,-7704 12,-7704 6,-7704 0,-7698 0,-7692 0,-7692 0,-7680 0,-7680 0,-7674 6,-7668 12,-7668 12,-7668 649,-7668 649,-7668 655,-7668 661,-7674 661,-7680 661,-7680 661,-7692 661,-7692 661,-7698 655,-7704 649,-7704"/>
<text text-anchor="middle" x="330.5" y="-7682.3" font-family="Arial" font-size="14.00">uart_loopback_data_dma/GCC/build/driver/board/linkit7697_hdk/external_flash/src/bsp_flash_config.o</text>
</g>
<!-- n248 -->
<g id="node149" class="node">
<title>n248</title>
<path fill="none" stroke="red" stroke-width="2" d="M545,-7758C545,-7758 116,-7758 116,-7758 110,-7758 104,-7752 104,-7746 104,-7746 104,-7734 104,-7734 104,-7728 110,-7722 116,-7722 116,-7722 545,-7722 545,-7722 551,-7722 557,-7728 557,-7734 557,-7734 557,-7746 557,-7746 557,-7752 551,-7758 545,-7758"/>
<text text-anchor="middle" x="330.5" y="-7736.3" font-family="Arial" font-size="14.00">uart_loopback_data_dma/GCC/build/driver/chip/mt7687/src/hal_log.o</text>
</g>
<!-- n285 -->
<g id="node150" class="node">
<title>n285</title>
<path fill="none" stroke="red" stroke-width="2" d="M1175.5,-1116C1175.5,-1116 753.5,-1116 753.5,-1116 747.5,-1116 741.5,-1110 741.5,-1104 741.5,-1104 741.5,-1092 741.5,-1092 741.5,-1086 747.5,-1080 753.5,-1080 753.5,-1080 1175.5,-1080 1175.5,-1080 1181.5,-1080 1187.5,-1086 1187.5,-1092 1187.5,-1092 1187.5,-1104 1187.5,-1104 1187.5,-1110 1181.5,-1116 1175.5,-1116"/>
<text text-anchor="middle" x="964.5" y="-1094.3" font-family="Arial" font-size="14.00">uart_loopback_data_dma/GCC/build/middleware/MTK/verno/verno.c</text>
</g>
<!-- n284 -->
<g id="node151" class="node">
<title>n284</title>
<path fill="none" stroke="red" stroke-width="2" d="M1836,-873C1836,-873 1413,-873 1413,-873 1407,-873 1401,-867 1401,-861 1401,-861 1401,-849 1401,-849 1401,-843 1407,-837 1413,-837 1413,-837 1836,-837 1836,-837 1842,-837 1848,-843 1848,-849 1848,-849 1848,-861 1848,-861 1848,-867 1842,-873 1836,-873"/>
<text text-anchor="middle" x="1624.5" y="-851.3" font-family="Arial" font-size="14.00">uart_loopback_data_dma/GCC/build/middleware/MTK/verno/verno.o</text>
</g>
<!-- n285&#45;&gt;n284 -->
<g id="edge2" class="edge">
<title>n285&#45;&gt;n284</title>
<path fill="none" stroke="black" d="M1187.57,-1082.42C1202.74,-1079.24 1217.68,-1075.47 1232,-1071 1375.61,-1026.17 1526.15,-925.43 1590.83,-879.12"/>
<polygon fill="black" stroke="black" points="1592.95,-881.91 1599.01,-873.22 1588.85,-876.23 1592.95,-881.91"/>
</g>
<!-- n214 -->
<g id="node153" class="node">
<title>n214</title>
<path fill="none" stroke="red" stroke-width="2" d="M2436,-603C2436,-603 2029,-603 2029,-603 2023,-603 2017,-597 2017,-591 2017,-591 2017,-579 2017,-579 2017,-573 2023,-567 2029,-567 2029,-567 2436,-567 2436,-567 2442,-567 2448,-573 2448,-579 2448,-579 2448,-591 2448,-591 2448,-597 2442,-603 2436,-603"/>
<text text-anchor="middle" x="2232.5" y="-581.3" font-family="Arial" font-size="14.00">uart_loopback_data_dma/GCC/build/uart_loopback_data_dma.elf</text>
</g>
<!-- n284&#45;&gt;n214 -->
<g id="edge23" class="edge">
<title>n284&#45;&gt;n214</title>
<path fill="none" stroke="black" d="M1666.2,-836.87C1773.58,-789.02 2064.3,-659.5 2181.51,-607.27"/>
<polygon fill="black" stroke="black" points="2183.26,-610.32 2190.97,-603.06 2180.42,-603.93 2183.26,-610.32"/>
</g>
<!-- n276&#45;&gt;n214 -->
<g id="edge24" class="edge">
<title>n276&#45;&gt;n214</title>
<path fill="none" stroke="black" d="M1981.08,-573.84C1989.61,-574.22 1998.08,-574.6 2006.47,-574.97"/>
<polygon fill="black" stroke="black" points="2006.5,-578.48 2016.65,-575.43 2006.82,-571.49 2006.5,-578.48"/>
</g>
<!-- n213 -->
<g id="node159" class="node">
<title>n213</title>
<path fill="none" stroke="red" stroke-width="2" d="M2566,-603C2566,-603 2496,-603 2496,-603 2490,-603 2484,-597 2484,-591 2484,-591 2484,-579 2484,-579 2484,-573 2490,-567 2496,-567 2496,-567 2566,-567 2566,-567 2572,-567 2578,-573 2578,-579 2578,-579 2578,-591 2578,-591 2578,-597 2572,-603 2566,-603"/>
<text text-anchor="middle" x="2531" y="-581.3" font-family="Arial" font-size="14.00">proj</text>
</g>
<!-- n214&#45;&gt;n213 -->
<g id="edge27" class="edge">
<title>n214&#45;&gt;n213</title>
<path fill="none" stroke="black" d="M2448.2,-585C2457.14,-585 2465.67,-585 2473.63,-585"/>
<polygon fill="black" stroke="black" points="2473.73,-588.5 2483.73,-585 2473.73,-581.5 2473.73,-588.5"/>
</g>
<!-- n286 -->
<g id="node154" class="node">
<title>n286</title>
<path fill="none" stroke="red" stroke-width="2" d="M365.5,-1116C365.5,-1116 295.5,-1116 295.5,-1116 289.5,-1116 283.5,-1110 283.5,-1104 283.5,-1104 283.5,-1092 283.5,-1092 283.5,-1086 289.5,-1080 295.5,-1080 295.5,-1080 365.5,-1080 365.5,-1080 371.5,-1080 377.5,-1086 377.5,-1092 377.5,-1092 377.5,-1104 377.5,-1104 377.5,-1110 371.5,-1116 365.5,-1116"/>
<text text-anchor="middle" x="330.5" y="-1094.3" font-family="Arial" font-size="14.00">FORCE</text>
</g>
<!-- n286&#45;&gt;n285 -->
<g id="edge1" class="edge">
<title>n286&#45;&gt;n285</title>
<path fill="none" stroke="black" d="M377.72,-1098C451.7,-1098 601.58,-1098 731.21,-1098"/>
<polygon fill="black" stroke="black" points="731.29,-1101.5 741.29,-1098 731.29,-1094.5 731.29,-1101.5"/>
</g>
<!-- n138 -->
<g id="node155" class="node">
<title>n138</title>
<path fill="none" stroke="green" stroke-width="2" d="M365.5,-7812C365.5,-7812 295.5,-7812 295.5,-7812 289.5,-7812 283.5,-7806 283.5,-7800 283.5,-7800 283.5,-7788 283.5,-7788 283.5,-7782 289.5,-7776 295.5,-7776 295.5,-7776 365.5,-7776 365.5,-7776 371.5,-7776 377.5,-7782 377.5,-7788 377.5,-7788 377.5,-7800 377.5,-7800 377.5,-7806 371.5,-7812 365.5,-7812"/>
<text text-anchor="middle" x="330.5" y="-7790.3" font-family="Arial" font-size="14.00">Makefile</text>
</g>
<!-- n211 -->
<g id="node156" class="node">
<title>n211</title>
<path fill="none" stroke="red" stroke-width="2" d="M2696,-576C2696,-576 2626,-576 2626,-576 2620,-576 2614,-570 2614,-564 2614,-564 2614,-552 2614,-552 2614,-546 2620,-540 2626,-540 2626,-540 2696,-540 2696,-540 2702,-540 2708,-546 2708,-552 2708,-552 2708,-564 2708,-564 2708,-570 2702,-576 2696,-576"/>
<text text-anchor="middle" x="2661" y="-554.3" font-family="Arial" font-size="14.00">all</text>
</g>
<!-- n212 -->
<g id="node157" class="node">
<title>n212</title>
<path fill="none" stroke="red" stroke-width="2" d="M2566,-549C2566,-549 2496,-549 2496,-549 2490,-549 2484,-543 2484,-537 2484,-537 2484,-525 2484,-525 2484,-519 2490,-513 2496,-513 2496,-513 2566,-513 2566,-513 2572,-513 2578,-519 2578,-525 2578,-525 2578,-537 2578,-537 2578,-543 2572,-549 2566,-549"/>
<text text-anchor="middle" x="2531" y="-527.3" font-family="Arial" font-size="14.00">cleanlog</text>
</g>
<!-- n212&#45;&gt;n211 -->
<g id="edge25" class="edge">
<title>n212&#45;&gt;n211</title>
<path fill="none" stroke="black" d="M2578.21,-540.75C2586.55,-542.51 2595.32,-544.36 2603.91,-546.17"/>
<polygon fill="black" stroke="black" points="2603.35,-549.63 2613.86,-548.27 2604.79,-542.78 2603.35,-549.63"/>
</g>
<!-- n137 -->
<g id="node158" class="node">
<title>n137</title>
<path fill="none" stroke="green" stroke-width="2" d="M365.5,-7866C365.5,-7866 295.5,-7866 295.5,-7866 289.5,-7866 283.5,-7860 283.5,-7854 283.5,-7854 283.5,-7842 283.5,-7842 283.5,-7836 289.5,-7830 295.5,-7830 295.5,-7830 365.5,-7830 365.5,-7830 371.5,-7830 377.5,-7836 377.5,-7842 377.5,-7842 377.5,-7854 377.5,-7854 377.5,-7860 371.5,-7866 365.5,-7866"/>
<text text-anchor="middle" x="330.5" y="-7844.3" font-family="Arial" font-size="14.00">feature.mk</text>
</g>
<!-- n213&#45;&gt;n211 -->
<g id="edge26" class="edge">
<title>n213&#45;&gt;n211</title>
<path fill="none" stroke="black" d="M2578.21,-575.25C2586.55,-573.49 2595.32,-571.64 2603.91,-569.83"/>
<polygon fill="black" stroke="black" points="2604.79,-573.22 2613.86,-567.73 2603.35,-566.37 2604.79,-573.22"/>
</g>
</g>
</svg>
